<svg width="23" height="22" viewBox="0 0 23 22" fill="none" xmlns="http://www.w3.org/2000/svg">
<path d="M13.75 6.25L13.2806 7.133C13.7343 7.3742 14.297 7.23225 14.5821 6.8047L13.75 6.25ZM16.25 2.5L17.0821 3.0547C17.354 2.6468 17.2901 2.10192 16.9312 1.76795L16.25 2.5ZM21 9.49995L21.9978 9.43345C21.9628 8.90815 21.5265 8.49995 21 8.49995L21 9.49995ZM11 9.5001V8.5001C10.7348 8.5001 10.4804 8.60545 10.2929 8.793C10.1054 8.9805 10 9.2349 10 9.5001H11ZM11 13.0002H10C10 13.5525 10.4477 14.0002 11 14.0002V13.0002ZM15.75 13.0002H16.75C16.75 12.448 16.3023 12.0002 15.75 12.0002V13.0002ZM14.5821 6.8047L17.0821 3.0547L15.4179 1.9453L12.9179 5.6953L14.5821 6.8047ZM16.25 2.5C16.9312 1.76795 16.9308 1.76752 16.9303 1.76708C16.9301 1.76693 16.9296 1.76648 16.9293 1.76618C16.9287 1.76556 16.928 1.76493 16.9272 1.76427C16.9258 1.76295 16.9243 1.76155 16.9226 1.76005C16.9194 1.75706 16.9157 1.75372 16.9116 1.75004C16.9034 1.74267 16.8934 1.73393 16.8817 1.72393C16.8584 1.70393 16.8281 1.67886 16.7908 1.64949C16.7161 1.59073 16.6129 1.5148 16.4795 1.42785C16.2124 1.25377 15.8253 1.0363 15.3041 0.82394C14.2592 0.39811 12.6931 0 10.5 0V2C12.4451 2 13.754 2.35189 14.5494 2.67606C14.9486 2.8387 15.2231 2.99623 15.3875 3.1034C15.4698 3.15707 15.5249 3.19833 15.5545 3.2216C15.5693 3.23325 15.5777 3.2404 15.58 3.24237C15.5812 3.24336 15.5808 3.24305 15.579 3.24136C15.578 3.24052 15.5766 3.23932 15.5749 3.23777C15.5741 3.237 15.5731 3.23614 15.5721 3.23519C15.5716 3.23471 15.5711 3.23421 15.5705 3.23369C15.5702 3.23342 15.5698 3.23302 15.5697 3.23289C15.5692 3.23248 15.5688 3.23205 16.25 2.5ZM10.5 0C8.15325 0 5.5449 1.05073 3.52583 2.88479C1.48885 4.7351 0 7.4307 0 10.75H2C2 8.0693 3.19209 5.8899 4.8706 4.3652C6.56695 2.82427 8.7086 2 10.5 2V0ZM0 10.75C0 17.6003 5.49665 22.0001 11 22.0001V20.0001C6.50335 20.0001 2 16.4003 2 10.75H0ZM21 9.49995C21 8.49995 21 8.49995 21 8.49995C20.9999 8.49995 21 8.49995 21 8.49995C20.9998 8.49995 20.9992 8.49995 20.9988 8.49995C20.998 8.49995 20.9968 8.49995 20.9953 8.49995C20.9921 8.49995 20.9874 8.49995 20.9812 8.49995C20.9688 8.49995 20.9503 8.49995 20.9261 8.49995C20.8776 8.49995 20.8061 8.49995 20.7139 8.49995C20.5292 8.5 20.2617 8.5 19.9296 8.5C19.2656 8.5 18.3438 8.50005 17.3125 8.50005C15.25 8.5001 12.75 8.50015 11 8.5001V10.5001C12.75 10.5001 15.25 10.5001 17.3125 10.5C18.3438 10.5 19.2657 10.5 19.9297 10.5C20.2618 10.5 20.5294 10.5 20.7139 10.5C20.8062 10.5 20.8777 10.5 20.9262 10.5C20.9504 10.5 20.9689 10.5 20.9813 10.5C20.9875 10.5 20.9921 10.5 20.9953 10.5C20.9969 10.5 20.9981 10.5 20.9988 10.5C20.9993 10.5 20.9995 10.5 20.9998 10.5C20.9997 10.5 20.9998 10.5 20.9998 10.5C20.9998 10.5 21 10.5 21 9.49995ZM10 9.5001V13.0002H12V9.5001H10ZM11 14.0002H15.75V12.0002H11V14.0002ZM14.75 13.0002C14.75 13.3488 14.4892 13.9663 13.7905 14.5399C13.1241 15.087 12.1587 15.5003 11 15.5003V17.5003C12.6413 17.5003 14.051 16.9136 15.0595 16.0857C16.0358 15.2842 16.75 14.1517 16.75 13.0002H14.75ZM11 15.5003C8.1914 15.5003 6.5 13.0979 6.5 10.75H4.5C4.5 13.902 6.8086 17.5003 11 17.5003V15.5003ZM6.5 10.75C6.5 8.58195 8.5221 6.49995 11 6.49995V4.49995C7.4779 4.49995 4.5 7.418 4.5 10.75H6.5ZM11 6.49995C12.0001 6.49995 12.8226 6.8895 13.2806 7.133L14.2194 5.367C13.6774 5.07885 12.4999 4.49995 11 4.49995V6.49995ZM11 22.0001C13.8363 22.0001 17.2299 20.8439 19.5404 17.8626L17.9596 16.6374C16.0943 19.0443 13.3349 20.0001 11 20.0001V22.0001ZM19.5404 17.8626C21.059 15.9032 22.2667 13.4672 21.9978 9.43345L20.0022 9.5665C20.2333 13.033 19.2307 14.9972 17.9596 16.6374L19.5404 17.8626Z" fill="#36221A"/>
</svg>
