<svg width="22" height="22" viewBox="0 0 22 22" fill="none" xmlns="http://www.w3.org/2000/svg">
<path d="M18.4999 5.10714C18.4999 5.99471 17.7804 6.71429 16.8928 6.71429C16.0052 6.71429 15.2856 5.99471 15.2856 5.10714C15.2856 4.21954 16.0052 3.5 16.8928 3.5C17.7804 3.5 18.4999 4.21954 18.4999 5.10714Z" fill="#453E38"/>
<path fill-rule="evenodd" clip-rule="evenodd" d="M11 16.3572C13.9586 16.3572 16.3571 13.9587 16.3571 11.0001C16.3571 8.04144 13.9586 5.64294 11 5.64294C8.04132 5.64294 5.64282 8.04144 5.64282 11.0001C5.64282 13.9587 8.04132 16.3572 11 16.3572ZM11 14.2144C12.7752 14.2144 14.2143 12.7753 14.2143 11.0001C14.2143 9.22484 12.7752 7.7858 11 7.7858C9.22471 7.7858 7.78568 9.22484 7.78568 11.0001C7.78568 12.7753 9.22471 14.2144 11 14.2144Z" fill="#453E38"/>
<path fill-rule="evenodd" clip-rule="evenodd" d="M0.285645 10.5715C0.285645 6.97116 0.285645 5.17095 0.986316 3.79583C1.60264 2.58621 2.58609 1.60277 3.79571 0.986438C5.17082 0.285767 6.97104 0.285767 10.5714 0.285767H11.4285C15.0288 0.285767 16.829 0.285767 18.2041 0.986438C19.4138 1.60277 20.3972 2.58621 21.0135 3.79583C21.7142 5.17095 21.7142 6.97116 21.7142 10.5715V11.4286C21.7142 15.0289 21.7142 16.8292 21.0135 18.2042C20.3972 19.4139 19.4138 20.3973 18.2041 21.0136C16.829 21.7143 15.0288 21.7143 11.4285 21.7143H10.5714C6.97104 21.7143 5.17082 21.7143 3.79571 21.0136C2.58609 20.3973 1.60264 19.4139 0.986316 18.2042C0.285645 16.8292 0.285645 15.0289 0.285645 11.4286V10.5715ZM10.5714 2.42862H11.4285C13.2641 2.42862 14.5118 2.43029 15.4763 2.50909C16.4158 2.58584 16.8962 2.72497 17.2314 2.89573C18.0377 3.30663 18.6933 3.96226 19.1042 4.76862C19.275 5.10377 19.4142 5.58419 19.4909 6.52373C19.5696 7.48823 19.5714 8.73591 19.5714 10.5715V11.4286C19.5714 13.2642 19.5696 14.5119 19.4909 15.4764C19.4142 16.4159 19.275 16.8963 19.1042 17.2315C18.6933 18.0378 18.0377 18.6934 17.2314 19.1043C16.8962 19.2751 16.4158 19.4143 15.4763 19.491C14.5118 19.5698 13.2641 19.5715 11.4285 19.5715H10.5714C8.73579 19.5715 7.48811 19.5698 6.52361 19.491C5.58407 19.4143 5.10364 19.2751 4.7685 19.1043C3.96213 18.6934 3.30651 18.0378 2.89561 17.2315C2.72485 16.8963 2.58572 16.4159 2.50897 15.4764C2.43017 14.5119 2.4285 13.2642 2.4285 11.4286V10.5715C2.4285 8.73591 2.43017 7.48823 2.50897 6.52373C2.58572 5.58419 2.72485 5.10377 2.89561 4.76862C3.30651 3.96226 3.96213 3.30663 4.7685 2.89573C5.10364 2.72497 5.58407 2.58584 6.52361 2.50909C7.48811 2.43029 8.73579 2.42862 10.5714 2.42862Z" fill="#453E38"/>
</svg>
