<svg width="24" height="24" viewBox="0 0 24 24" fill="none" xmlns="http://www.w3.org/2000/svg">
<path d="M17.5556 2H6.44444C3.98984 2 2 3.98984 2 6.44444V17.5556C2 20.0102 3.98984 22 6.44444 22H17.5556C20.0102 22 22 20.0102 22 17.5556V6.44444C22 3.98984 20.0102 2 17.5556 2Z" stroke="#36221A" stroke-width="2" stroke-linejoin="round"/>
<path d="M12 16C14.2092 16 16 14.2092 16 12C16 9.79085 14.2092 8 12 8C9.79085 8 8 9.79085 8 12C8 14.2092 9.79085 16 12 16Z" stroke="#36221A" stroke-width="2" stroke-linejoin="round"/>
<path d="M19 7C19.5523 7 20 6.5523 20 6C20 5.4477 19.5523 5 19 5C18.4477 5 18 5.4477 18 6C18 6.5523 18.4477 7 19 7Z" fill="#36221A"/>
</svg>
