<svg width="60" height="60" viewBox="0 0 60 60" fill="none" xmlns="http://www.w3.org/2000/svg">
<path d="M38.9513 12.4171C42.3816 12.4171 45.1602 9.63704 45.1602 6.20816C45.1602 2.77929 42.3806 0.000244141 38.9513 0.000244141C35.5234 0.000244141 32.7438 2.77977 32.7438 6.20816C32.7429 9.63704 35.5234 12.4171 38.9513 12.4171Z" fill="#242323"/>
<path d="M46.2073 33.2938V34.4827H41.0591V47.2114H58.2972V34.4827H53.1491V33.2938C53.1491 32.7154 52.678 32.2438 52.099 32.2438H52.0004C52.0879 31.9305 52.1131 31.5959 52.0636 31.2535C50.6211 21.4234 48.4385 17.2135 43.0815 13.9284C42.9766 13.8648 42.8687 13.8191 42.7595 13.7725C42.0674 13.3111 41.2913 12.9721 40.4982 12.7769L38.9513 14.334L37.452 12.7599C37.4471 12.7609 37.4418 12.7609 37.4369 12.7633C36.2902 13.0372 35.1746 13.6186 34.3024 14.4355C33.621 14.8944 33.0046 15.3791 32.4306 15.8944C30.89 16.9353 29.5913 18.2548 28.3339 19.5375C25.4412 22.4865 23.4893 24.2758 20.0381 23.981C18.5252 23.8542 17.2041 24.9664 17.0745 26.4725C17.0191 27.1111 17.1896 27.7168 17.5174 28.2136C17.3659 28.2088 17.2163 28.202 17.0643 28.202C8.59405 28.202 1.70279 35.0928 1.70279 43.563C1.70279 52.0327 8.59357 58.9244 17.0643 58.9244C25.534 58.9244 32.4252 52.0336 32.4252 43.563C32.4252 37.1239 28.4412 31.6012 22.8113 29.3215C27.0978 28.6133 29.9036 25.7566 32.2421 23.371C32.2756 23.336 32.3106 23.3015 32.3446 23.2665C32.4801 23.6998 32.5967 24.2889 32.5967 24.2889V31.8781C32.5967 32.526 32.722 33.1311 32.9439 33.6882C32.9265 33.8135 32.9148 33.9407 32.9148 34.0694L32.9158 57.1507C32.9158 58.7238 34.1916 59.9992 35.7643 59.9992C37.3383 59.9992 38.6128 58.7238 38.6128 57.1498L38.6118 37.3419C38.7245 37.3468 38.8371 37.356 38.9498 37.356C38.9731 37.356 38.9945 37.3526 39.0183 37.3526L39.0163 57.1507C39.0163 58.7238 40.2927 59.9992 41.8648 59.9992C43.438 59.9992 44.7138 58.7238 44.7138 57.1507V48.1769H40.1815V33.695H44.9547C45.1786 33.1374 45.3054 32.5313 45.3054 31.8785V23.5759C46.0771 25.5016 46.7342 28.1466 47.2923 31.9524C47.3064 32.0529 47.3365 32.1476 47.3627 32.2438H47.2559C46.6779 32.2438 46.2073 32.7149 46.2073 33.2938ZM9.34928 54.4552L9.3488 47.4192C9.38862 47.4221 9.42893 47.4251 9.46973 47.4251C9.4775 47.4251 9.48478 47.4231 9.49304 47.4231V54.4625C9.49304 54.497 9.49984 54.531 9.50324 54.565C9.45079 54.5286 9.40028 54.4907 9.34928 54.4552ZM9.4741 43.6067H9.4639L8.9316 42.8786L9.4639 39.3206H9.4741L10.0064 42.8786L9.4741 43.6067ZM10.8874 55.3984C11.257 55.2474 11.5188 54.8851 11.5188 54.4611L11.5193 46.3964C11.581 46.4634 11.6543 46.5227 11.7398 46.5683C11.8699 46.6392 12.0098 46.6727 12.1482 46.6727C12.4309 46.6727 12.7043 46.5314 12.8661 46.2818C12.9044 46.3546 12.9384 46.428 12.9797 46.5023C13.1633 46.8403 13.5115 47.0321 13.8714 47.0321C14.0346 47.0321 14.2007 46.9923 14.3547 46.9088C14.4086 46.8792 14.4576 46.8456 14.5033 46.8087L14.5043 56.2469C14.5043 56.4023 14.5363 56.5495 14.5902 56.685C13.2779 56.4387 12.0346 56.0002 10.8874 55.3984ZM12.0084 43.73C11.9627 44.0287 11.8733 44.3536 11.7286 44.7082V42.0778C11.8321 42.2575 11.9127 42.4522 11.9666 42.662C11.9447 42.9967 11.9574 43.3527 12.0084 43.73ZM14.3697 41.5892V44.714C13.8156 43.3546 13.9248 42.3624 14.3697 41.5892ZM17.0647 56.9181C16.9423 56.9181 16.8214 56.9132 16.7005 56.9094C16.8272 56.7185 16.9006 56.4912 16.9006 56.2464L16.9001 47.9141C16.9482 47.9161 16.9948 47.92 17.0424 47.92C17.0521 47.92 17.0613 47.92 17.0711 47.92V56.2474C17.0711 56.4931 17.1454 56.7229 17.2736 56.9142C17.2032 56.9147 17.1342 56.9181 17.0647 56.9181ZM17.0492 43.4051H17.0371L16.4071 42.5435L17.0371 38.3337H17.0492L17.6786 42.5435L17.0492 43.4051ZM19.3722 56.7151C19.4334 56.5708 19.4669 56.4125 19.4669 56.2464L19.4674 46.7048C19.5402 46.7845 19.6277 46.8549 19.7277 46.9093C19.8821 46.9928 20.0478 47.0326 20.2114 47.0326C20.5708 47.0326 20.9196 46.8403 21.1031 46.5028C21.143 46.4289 21.177 46.3575 21.2148 46.2857C21.3771 46.5334 21.6486 46.6737 21.9307 46.6737C22.0687 46.6737 22.209 46.6407 22.3397 46.5693C22.3844 46.544 22.4261 46.5164 22.465 46.4843L22.4659 54.4625C22.4659 54.9195 22.7705 55.3022 23.1867 55.4271C22.0065 56.0385 20.7238 56.479 19.3722 56.7151ZM19.716 44.7072V41.596C20.1566 42.3653 20.2658 43.3536 19.716 44.7072ZM22.1153 42.6504C22.1697 42.4425 22.2503 42.2507 22.3523 42.0734V44.714C22.209 44.3619 22.1192 44.0404 22.073 43.7436C22.126 43.357 22.1381 42.9928 22.1153 42.6504ZM24.4689 54.6718C24.4834 54.6034 24.4912 54.5344 24.4912 54.4611L24.4907 47.4187C24.5306 47.4207 24.5709 47.4236 24.6117 47.4236C24.6194 47.4236 24.6267 47.4226 24.635 47.4226L24.6345 54.4611C24.6345 54.4921 24.6413 54.5218 24.6442 54.5514C24.5864 54.5912 24.5281 54.632 24.4689 54.6718ZM24.617 43.6067H24.6068L24.074 42.8786L24.6068 39.3206H24.617L25.1498 42.8786L24.617 43.6067ZM30.4199 43.563C30.4199 47.1638 28.9847 50.4333 26.6607 52.8384L26.6612 46.3964C26.7229 46.4634 26.7962 46.5227 26.8807 46.5683C27.0119 46.6392 27.1513 46.6727 27.2902 46.6727C27.5937 46.6727 27.888 46.5115 28.0435 46.225C30.4616 41.781 27.1634 39.7587 26.0799 39.0938C26.0425 39.0704 26.0036 39.0544 25.9653 39.0384C25.719 38.8737 25.4431 38.7528 25.1619 38.6843L24.6122 39.2375L24.0784 38.6771C24.0769 38.679 24.074 38.679 24.0731 38.679C23.785 38.7484 23.5034 38.8713 23.2532 39.0389C23.2153 39.0554 23.177 39.0704 23.1406 39.0938C22.7345 39.3424 22.0186 39.781 21.4086 40.4658C20.6248 39.1987 19.3979 38.4434 18.7801 38.0651C18.736 38.0374 18.6898 38.0185 18.6446 37.9986C18.3532 37.8062 18.0273 37.662 17.6937 37.5809L17.0424 38.2361L16.412 37.5741C16.4096 37.5755 16.4071 37.5755 16.4057 37.576C16.0652 37.6566 15.7316 37.8028 15.4363 38.002C15.3911 38.0214 15.3459 38.0389 15.3027 38.0661C14.6844 38.4454 13.4562 39.2006 12.6718 40.4697C12.0613 39.7839 11.3449 39.3439 10.9379 39.0947C10.9005 39.0709 10.8622 39.0554 10.8233 39.0394C10.578 38.8747 10.3017 38.7538 10.02 38.6853L9.4707 39.238L8.93743 38.678C8.935 38.679 8.93306 38.679 8.93111 38.68C8.64408 38.7489 8.36239 38.8723 8.11178 39.0394C8.07389 39.0559 8.03504 39.0714 7.9991 39.0942C6.91556 39.7582 3.61733 41.7805 6.03551 46.2259C6.19044 46.5115 6.48476 46.6737 6.78879 46.6737C6.92721 46.6737 7.06757 46.6407 7.19773 46.5693C7.24339 46.544 7.28516 46.5164 7.32352 46.4843L7.32401 52.6869C5.08504 50.2973 3.71009 47.0895 3.71009 43.5634C3.71009 36.1991 9.70043 30.2083 17.0657 30.2083C24.4291 30.2078 30.4199 36.1982 30.4199 43.563ZM26.8715 44.7072V42.0768C27.244 42.7286 27.3358 43.563 26.8715 44.7072ZM7.20988 42.0729V44.713C6.7412 43.563 6.83396 42.7257 7.20988 42.0729ZM38.9658 26.6216H38.9372L37.4398 24.572L38.5987 16.8201C38.7152 16.5083 38.7648 16.1771 38.7458 15.8425L38.9382 14.5642H38.9663L40.4651 24.5715L38.9658 26.6216ZM47.8056 33.1209C48.2534 33.6722 48.9348 34.0136 49.6755 34.0136C49.7921 34.0136 49.9096 34.0048 50.0276 33.9878C50.6507 33.8965 51.1806 33.5731 51.5473 33.1209H52.0995C52.1962 33.1209 52.2724 33.1986 52.2724 33.2933V34.4823H47.0839V33.2933C47.0839 33.1986 47.1616 33.1209 47.2563 33.1209H47.8056Z" fill="#242323"/>
<path d="M17.0424 37.4284C18.4844 37.4284 19.6534 36.2594 19.6534 34.8174C19.6534 33.3754 18.4844 32.2064 17.0424 32.2064C15.6004 32.2064 14.4314 33.3754 14.4314 34.8174C14.4314 36.2594 15.6004 37.4284 17.0424 37.4284Z" fill="#242323"/>
<path d="M24.6117 38.5562C25.8308 38.5562 26.8191 37.5679 26.8191 36.3488C26.8191 35.1296 25.8308 34.1414 24.6117 34.1414C23.3926 34.1414 22.4043 35.1296 22.4043 36.3488C22.4043 37.5679 23.3926 38.5562 24.6117 38.5562Z" fill="#242323"/>
<path d="M9.47022 38.5562C10.6893 38.5562 11.6776 37.5679 11.6776 36.3488C11.6776 35.1296 10.6893 34.1414 9.47022 34.1414C8.2511 34.1414 7.26282 35.1296 7.26282 36.3488C7.26282 37.5679 8.2511 38.5562 9.47022 38.5562Z" fill="#242323"/>
</svg>
