<svg width="55" height="61" viewBox="0 0 55 61" fill="none" xmlns="http://www.w3.org/2000/svg">
<path d="M36.2757 33.2623C38.2676 33.2793 40.1222 32.8286 41.3918 34.6539C44.0228 38.4357 45.6756 44.7779 48.2894 48.7909C48.6022 51.7904 44.9722 53.5104 43.0011 50.906C40.9351 48.1766 39.5262 42.2273 37.4829 39.6632C36.067 37.8864 33.9293 39.2089 32.5972 38.717C32.283 38.601 29.9575 33.7385 28.7461 33.4299C31.2429 33.4639 33.7873 33.2417 36.2762 33.2632L36.2757 33.2623Z" fill="#242323"/>
<path d="M17.8375 0.0651043C24.2063 -0.737237 27.4853 6.06073 22.3316 10.3019C22.0914 10.4995 21.0905 10.8269 21.0066 11.0174C20.911 11.2341 21.1462 12.1077 20.6031 12.2832C20.2455 12.3988 17.3148 12.1507 17.031 11.9531C16.6813 11.7095 16.96 11.2367 16.8584 11.0174C16.8074 10.908 15.4476 10.2944 15.1879 10.0817C11.4905 7.0651 12.7441 0.707066 17.8375 0.0651043Z" fill="#242323"/>
<path d="M16.108 12.314C16.4171 12.2756 17.6353 13.1008 18.2662 13.1913C19.1114 13.3127 21.1045 12.8902 21.4464 12.9719C21.739 13.0416 22.7602 14.5688 22.8663 14.8915L24.059 25.1474C23.36 23.943 22.7296 22.6375 22.1852 21.3634C21.5475 19.872 20.5509 15.6517 18.9482 15.1661C17.6175 14.7626 15.9755 15.5286 15.8251 16.9758C15.6866 18.3069 19.4378 26.6776 20.3681 28.1641C20.6177 28.5628 21.2202 28.8692 21.2197 29.316C18.8947 28.3597 16.2141 28.7491 13.8937 28.7125L13.6665 15.4398C13.7428 14.4884 15.1097 12.4381 16.1085 12.3136L16.108 12.314Z" fill="#242323"/>
<path d="M17.7588 15.4649C20.3908 15.0661 21.0172 19.5087 21.833 21.3541C22.226 22.2438 23.3887 25.0426 23.8987 25.6474C24.8456 26.7701 29.7609 28.0439 31.3013 28.8946C33.7758 30.261 32.5351 33.0944 29.4652 32.3071C28.4481 32.0462 22.5009 29.5548 21.7761 29.005C20.4458 27.9957 16.0904 18.3129 16.325 16.841C16.4197 16.2478 17.1343 15.5601 17.7598 15.4649H17.7588Z" fill="#242323"/>
<path d="M37.1211 54.0026C39.3258 53.5158 39.7913 56.0819 38.1808 56.4318C36.1689 56.8689 35.6665 54.3236 37.1211 54.0026Z" fill="#242323"/>
<path d="M15.3064 30.3658C35.2229 28.6766 38.075 57.0016 18.5228 58.9212C-2.10288 60.9468 -4.58926 32.0529 15.3064 30.3658Z" fill="#242323"/>
<path d="M30.5782 44.0906L19.3486 44.3127C19.789 44.1013 20.3402 43.8038 20.7959 43.6465C20.9678 43.5871 20.8625 43.9213 21.3751 43.7573C21.8718 43.5987 21.9524 43.1881 22.1854 43.0911C23.0106 42.7484 23.7058 42.7573 24.6163 42.4249C24.688 42.399 24.6032 42.1041 24.9634 41.9808C25.0934 41.9361 25.6111 41.9026 26.0631 41.7587C27.2503 41.3803 28.4586 41.1649 29.6519 40.8151L28.3206 38.2066L26.8734 39.039C26.6819 38.4854 28.2181 38.2035 28.2629 37.9292L26.7 36.0977L20.3905 41.4263C20.4278 41.3499 20.4101 41.1922 20.2749 41.2042C22.2273 39.3616 24.3059 37.6289 26.2951 35.8202L24.3852 34.3217L19.2331 41.593L19.4646 41.8704C19.1296 42.2082 18.6884 42.596 18.4228 42.9803C18.2713 42.9906 18.1101 42.9638 17.9596 42.9803L18.3067 42.2033L24.0949 34.155C24.0781 33.9638 22.3471 33.1046 22.0689 32.9893C21.8261 32.8887 21.6304 33.2185 21.6057 33.2113C21.5629 33.1984 21.581 32.7994 21.1426 32.656C20.9021 32.5773 19.535 32.2351 19.4059 32.3231L18.2485 37.8733C18.2471 36.0057 18.9307 34.1309 19.1166 32.2677L16.6857 32.0456V41.7033L17.1488 41.9808C17.1432 42.017 17.154 42.0554 17.1488 42.0916C16.7518 42.2851 16.9769 42.7274 16.5697 42.9794L16.3963 31.9893L14.0232 32.2668L16.3385 42.979C16.0958 43.1166 15.6634 43.1478 15.4127 43.3118L14.197 42.3128L15.2967 43.4226C13.9314 44.5052 15.5483 45.524 14.0232 45.5874C14.6215 45.7353 14.1672 46.1347 14.8913 45.7536L15.0646 46.0311C15.059 46.1195 14.2748 46.7299 14.1388 46.8635C11.7321 49.236 9.00064 51.3463 6.61354 53.7461C5.00086 52.2135 5.07635 52.0737 4.18264 50.2489C4.12626 50.1341 3.88722 50.2525 3.8355 50.1381C3.37141 49.1136 3.09277 48.0707 2.90965 46.9743L13.7921 45.6978L2.79409 46.7522C2.75169 46.4202 2.56018 44.5405 2.73631 44.4212L14.4868 44.81L2.73631 44.1992C2.43297 43.9928 3.20087 40.9862 3.37327 40.4804C3.39843 40.4054 3.81127 40.4415 3.83643 40.2584C3.84203 40.2181 3.43944 40.2374 3.72088 39.5922C3.98601 38.9836 6.05672 35.7577 6.55716 35.6513C7.26029 35.5017 11.8807 40.8396 12.9822 41.257L6.84652 35.3734L8.64092 33.9857C8.76859 33.9812 8.81472 33.9785 8.93028 34.0411C9.15534 34.163 11.5834 37.7205 11.8248 38.1481C12.1412 38.7093 12.0308 39.526 12.6351 40.3683C13.6276 41.7516 14.8936 41.3602 15.703 42.6438C15.443 41.9464 15.8945 41.9589 15.8763 41.5894L13.7925 32.3758C13.6351 32.2391 12.5717 32.4111 12.7507 32.8199L15.3554 41.3119L12.5191 32.7087L11.4772 32.9307L11.8826 37.6486L9.04631 33.819C15.0464 29.8974 23.7445 31.5282 28.0322 37.0382C29.7898 39.2968 30.4244 41.3253 30.5791 44.087L30.5801 44.0888L30.5782 44.0906Z" fill="#FFF9F4"/>
<path d="M15.3289 47.3111C15.1781 47.5607 14.9372 47.7922 14.7541 48.0246C15.7381 48.6193 15.4828 47.5934 15.6729 47.3111C16.2777 46.4138 16.2495 46.9382 16.8215 46.8719L18.3724 55.3236L16.9362 46.8719C17.1586 46.8671 17.332 46.4354 17.7403 46.8172C18.0084 47.0672 18.1435 48.1925 18.1999 48.2442C18.3451 48.3781 18.6743 48.2181 18.7746 48.3538C20.553 50.7709 22.1339 53.3333 24.0594 55.6532C23.7126 55.8489 21.8389 56.8562 21.5892 56.7507C21.3724 56.6588 21.2031 55.1562 20.7851 54.9945C20.6108 55.5021 21.5564 56.6747 21.1296 56.9702C20.3801 57.4138 19.3429 57.215 18.7173 57.2994C18.6794 57.3047 18.254 57.6126 18.0279 57.6285C16.9227 57.7072 15.7963 57.5914 14.6963 57.519C14.6029 57.4558 14.7291 56.4935 14.7536 56.3115C15.1115 53.6854 16.0955 51.047 16.1898 48.4081C15.3168 50.9144 15.266 53.7875 14.639 56.3115C14.6024 56.4586 14.4364 57.2039 14.4092 57.2446C14.1752 57.591 12.0472 56.9256 11.9968 56.8054C11.9339 56.6574 12.6252 55.5392 12.3991 55.2141C11.7041 57.5508 10.9116 56.4931 9.24003 55.5984L11.8248 51.8117L8.83775 55.4341C8.08913 55.0232 7.55968 54.4431 6.94238 53.8975C9.40742 51.8206 11.8447 48.8685 14.4101 46.9824C14.6861 46.7792 15.1175 46.2671 15.5013 46.3237C16.2273 46.4306 15.5106 47.0102 15.3293 47.3115L15.3289 47.3111Z" fill="#FFF9F4"/>
<path d="M30.3762 46.9689C29.8965 49.608 28.6453 51.8921 26.6191 53.7459L18.3535 46.1913C18.4019 46.1547 18.1651 45.6427 18.9895 45.7469C19.1417 45.7661 22.1031 47.489 21.6481 46.7467L19.914 45.8582L30.3757 46.9689H30.3762Z" fill="#FFF9F4"/>
<path d="M17.9769 42.9085C18.1257 42.8919 18.2855 42.9188 18.4361 42.9085C17.3311 44.5271 20.2659 42.2526 20.8462 42.2965C20.6886 42.7124 18.7193 43.5421 18.6652 43.7426C18.6153 43.9271 19.0002 44.2311 19.0094 44.3547C19.0177 44.463 18.9918 44.5826 19.0094 44.6882C19.0154 44.7245 18.7595 45.196 18.8948 45.4113L30.3724 46.6905C30.3613 46.7608 30.3848 46.8427 30.3724 46.913L19.9851 45.8008L21.7068 46.6905C22.1581 47.4341 19.2182 45.7086 19.0671 45.6894C18.2485 45.5846 18.4841 46.0977 18.4356 46.1344C18.3714 46.1832 18.37 46.1859 18.3211 46.2454C18.3017 46.2687 17.8961 46.1393 17.8619 46.5235L24.2892 55.478C24.2758 55.4865 24.2231 55.6065 24.0596 55.7006C22.136 53.3495 20.5565 50.7523 18.7798 48.3032C18.68 48.1657 18.3516 48.3274 18.2056 48.1922C18.1492 48.1398 18.0143 46.9999 17.7464 46.746C17.338 46.3592 17.1652 46.797 16.943 46.8015C16.9056 46.8024 16.8654 46.797 16.8285 46.8015C16.257 46.8687 16.2843 46.3368 15.6809 47.2466H15.3368C15.5188 46.9408 16.2344 46.3538 15.5086 46.2454C15.1247 46.1881 14.6942 46.707 14.4184 46.913L14.1888 46.802C14.3237 46.6676 15.1016 46.0565 15.1067 45.9678L14.9349 45.6898C14.217 46.0717 14.6674 45.671 14.0742 45.5232C15.5862 45.4597 13.9832 44.4388 15.3368 43.354C15.4148 43.2913 15.4449 43.247 15.4513 43.243C15.6999 43.0782 16.129 43.0478 16.3693 42.9094C16.4081 42.887 16.5633 42.9313 16.5989 42.9094C17.0022 42.6564 16.779 42.2127 17.1731 42.0198C17.1347 42.296 17.1546 42.5803 17.0585 42.8539C17.3851 43.1118 17.6327 42.9475 17.9764 42.9094V42.9085H17.9769Z" fill="#242323"/>
<path d="M30.5571 44.365C30.5819 45.4359 30.6255 45.6264 30.4409 46.7103L18.8013 45.4844C18.6641 45.278 18.9236 44.8262 18.9175 44.7915L30.5571 44.365Z" fill="#FFF9F4"/>
<path d="M18.4024 46.3223L26.5048 53.901C25.8916 54.6033 25.1136 55.0161 24.3365 55.505L17.9463 46.5989C17.9807 46.2172 18.3835 46.3455 18.4028 46.3223H18.4024Z" fill="#FFF9F4"/>
<path d="M30.5776 44.1694C30.5837 44.263 30.5757 44.2898 30.5776 44.3649L18.9712 44.7558C18.9534 44.6626 18.9796 44.558 18.9712 44.4628C19.0856 44.3735 19.2627 44.3893 19.3192 44.3653L30.5776 44.1698V44.1694Z" fill="#242323"/>
<path d="M14.4822 47.0159C11.9015 48.9049 9.44968 51.8619 6.96995 53.9416C6.88297 53.8646 6.81878 53.7969 6.73877 53.7217C9.12082 51.3451 11.8485 49.2553 14.251 46.9058L14.4822 47.0155V47.0159Z" fill="#242323"/>
<path d="M2.98232 46.9055C2.96414 46.807 2.87975 46.7972 2.8667 46.7016L13.8705 45.7329L2.98232 46.9055Z" fill="#242323"/>
<path d="M14.791 56.2868H14.6855C15.2622 53.7902 15.3094 50.9484 16.112 48.4692C16.0252 51.079 15.1202 53.6893 14.791 56.2868Z" fill="#242323"/>
<path d="M26.0086 41.8242H20.3363C19.983 41.5885 20.3663 41.5483 20.3935 41.491L26.6391 36.1565L28.1861 37.99C28.1418 38.2646 26.6211 38.5469 26.8107 39.1011L28.2433 38.2678L29.5611 40.8791C28.3798 41.2298 27.1839 41.4449 26.0086 41.8238V41.8242Z" fill="#242323"/>
<path d="M16.5195 42.9906C16.4851 43.0124 16.3352 42.9684 16.2972 42.9906L14.0742 32.3284L16.3526 32.0522L16.5191 42.9911L16.5195 42.9906Z" fill="#242323"/>
<path d="M20.2212 41.1688C19.9774 41.3929 19.6372 41.5938 19.4028 41.8242L19.1689 41.5512L24.3721 34.3975L26.301 35.8718C24.2926 37.6512 22.1929 39.3559 20.2212 41.1688Z" fill="#242323"/>
<path d="M20.3824 41.4536C20.3547 41.5092 19.9646 41.5486 20.3242 41.7769H26.0971C25.6417 41.917 25.1197 41.9496 24.9892 41.9926C24.6264 42.1119 24.7114 42.3983 24.6395 42.4239C23.7223 42.7467 23.0219 42.738 22.1906 43.0709C21.9559 43.165 21.8747 43.5638 21.3743 43.7178C20.8584 43.8771 20.964 43.5525 20.7908 43.6102C20.3317 43.763 19.7764 44.0515 19.3328 44.2572C19.276 44.2837 19.0981 44.2663 18.9831 44.3648C18.9732 44.2455 18.5826 43.9509 18.6333 43.7716C18.6878 43.5773 20.6889 42.7732 20.8495 42.3701C20.2599 42.3275 17.2772 44.5319 18.4005 42.9632C18.6676 42.5901 19.1126 42.2134 19.4501 41.8854C19.6844 41.658 20.0233 41.4597 20.2664 41.2384C20.4026 41.2271 20.4204 41.3798 20.3829 41.454L20.3824 41.4536Z" fill="#FFF9F4"/>
<path d="M15.5005 43.2706C15.4935 43.2754 15.463 43.3221 15.3843 43.3877L14.2783 42.2151L15.501 43.2706H15.5005Z" fill="#242323"/>
<path d="M16.7236 46.9075C16.763 46.9031 16.8048 46.9084 16.8442 46.9075L18.3538 55.3097L16.7236 46.9075Z" fill="#242323"/>
<path d="M15.7039 47.2966C15.4933 47.6046 15.7762 48.7236 14.6855 48.0749C14.8885 47.8214 15.1555 47.5694 15.3226 47.2966H15.7044H15.7039Z" fill="#242323"/>
<path d="M18.3291 42.2147L18.0998 42.1592C18.6078 41.604 18.9067 40.7967 19.0165 40.0488C18.7074 39.9656 18.0712 42.6317 17.6408 41.9371C17.4383 41.6103 18.4186 38.836 18.1566 38.2164C17.6929 39.368 17.6214 40.621 17.4115 41.8262C17.3954 41.9187 17.1841 41.9791 17.1822 41.9925L16.7236 41.7149V32.0522L19.1305 32.2744C18.9459 34.1394 18.2696 36.0148 18.271 37.8829L19.417 32.3299C19.5443 32.2422 20.8988 32.5847 21.1364 32.6629C21.5705 32.8059 21.5525 33.2051 21.595 33.2186C21.6194 33.2257 21.8127 32.8958 22.0536 32.9964C22.329 33.1117 24.0429 33.9714 24.0595 34.1627L18.3287 42.2151L18.3291 42.2147Z" fill="#242323"/>
<path d="M18.3175 42.1636L17.9941 42.9136C17.6706 42.9499 17.4383 43.1086 17.1313 42.8602C17.2221 42.5966 17.203 42.3227 17.239 42.0566C17.2438 42.0217 17.2338 41.9842 17.239 41.9497C17.2412 41.9363 17.4396 41.8781 17.4548 41.7892C17.6524 40.6264 17.7197 39.4174 18.156 38.3064C18.4022 38.9042 17.48 41.5809 17.6706 41.8962C18.0757 42.5664 18.674 39.9945 18.9653 40.0743C18.8611 40.7959 18.5802 41.5749 18.1026 42.1105L18.3184 42.164L18.3175 42.1636Z" fill="#242323"/>
<path d="M20.3638 36.3518C20.4939 36.7826 20.1493 37.384 19.8085 37.7199C19.6784 37.2896 20.0208 36.6906 20.3638 36.3518Z" fill="#FFF9F4"/>
<path fill-rule="evenodd" clip-rule="evenodd" d="M54.6023 51.1991C54.6885 51.4838 54.5234 51.7831 54.2335 51.8678L44.529 54.7008C44.2391 54.7854 43.9342 54.6233 43.848 54.3386C43.7619 54.0539 43.927 53.7546 44.2169 53.6699L53.9214 50.8369C54.2113 50.7523 54.5162 50.9144 54.6023 51.1991Z" fill="#242323"/>
<path fill-rule="evenodd" clip-rule="evenodd" d="M39.9556 51.4811C40.7597 51.9991 41.5114 52.7111 41.8467 53.4072C42.7094 55.1974 42.5038 56.6869 41.6229 57.7499C40.7681 58.7812 39.35 59.3216 37.9563 59.4028C36.5625 59.4841 35.0857 59.1125 34.1051 58.1882C33.0945 57.2355 32.6994 55.7811 33.3261 53.9041C33.569 53.1772 34.2111 52.396 34.9288 51.7948C35.6328 51.2051 36.5171 50.6987 37.3254 50.628C37.3338 50.6269 37.3422 50.6261 37.3506 50.6254C38.1828 50.5621 39.1605 50.969 39.9556 51.4811ZM37.4475 51.5546C37.4415 51.5553 37.4354 51.5559 37.4293 51.5563C36.9297 51.5944 36.2321 51.9464 35.5765 52.4956C34.9271 53.0395 34.4281 53.6854 34.2605 54.1869M37.4475 51.5546C37.9425 51.5248 38.6781 51.7853 39.4062 52.2542C40.1344 52.7234 40.7248 53.3174 40.9556 53.7964C41.6968 55.3344 41.462 56.4369 40.8531 57.1717C40.218 57.938 39.0968 58.4011 37.8963 58.4711C36.6959 58.5411 35.5236 58.2117 34.795 57.5249C34.0964 56.8664 33.7221 55.7994 34.2605 54.1869" fill="white"/>
<path d="M37.4475 51.5546C37.4415 51.5553 37.4354 51.5559 37.4293 51.5563C36.9297 51.5944 36.2321 51.9464 35.5765 52.4956C34.9271 53.0395 34.4281 53.6854 34.2605 54.1869M37.4475 51.5546C37.9425 51.5248 38.6781 51.7853 39.4062 52.2542C40.1344 52.7234 40.7248 53.3174 40.9556 53.7964C41.6968 55.3344 41.462 56.4369 40.8531 57.1717C40.218 57.938 39.0968 58.4011 37.8963 58.4711C36.6959 58.5411 35.5236 58.2117 34.795 57.5249C34.0964 56.8664 33.7221 55.7994 34.2605 54.1869M37.4475 51.5546L35.0626 51.8893L34.2605 54.1869M41.8467 53.4072C41.5114 52.7111 40.7597 51.9991 39.9556 51.4811C39.1605 50.969 38.1828 50.5621 37.3506 50.6254C37.3422 50.6261 37.3338 50.6269 37.3254 50.628C36.5171 50.6987 35.6328 51.2051 34.9288 51.7948C34.2111 52.396 33.569 53.1772 33.3261 53.9041C32.6994 55.7811 33.0945 57.2355 34.1051 58.1882C35.0857 59.1125 36.5625 59.4841 37.9563 59.4028C39.35 59.3216 40.7681 58.7812 41.6229 57.7499C42.5038 56.6869 42.7094 55.1974 41.8467 53.4072Z" stroke="#242323" stroke-width="2" stroke-linecap="round" stroke-linejoin="round"/>
<path d="M36.8607 50.9568C36.9267 50.4918 36.9476 49.9899 36.9613 49.5115C36.995 48.0227 36.9312 46.5197 36.7806 45.0394C36.6431 43.8421 36.4907 42.6102 36.0524 41.488C35.9454 41.2452 35.8262 40.971 35.6146 40.8206C35.4657 40.73 35.286 40.6928 35.0848 40.6519C34.9601 40.6262 34.8186 40.5987 34.6638 40.5548C34.3562 40.5144 34.0216 40.5463 33.7308 40.4394C33.6926 40.4221 33.3708 39.776 33.4432 39.5403C33.4473 39.5213 33.48 39.4977 33.4901 39.4986C33.9343 39.547 34.484 39.4676 34.9865 39.4804C35.2263 39.5488 35.4858 39.5758 35.7561 39.6624C36.4738 39.8674 36.8557 40.4283 37.1169 41.0664C37.4237 41.8177 37.5857 42.6089 37.72 43.389C37.9689 44.916 38.0754 46.4567 38.1118 47.9974C38.1259 49.0416 38.135 50.0742 37.9985 51.1179C37.862 51.8483 36.7815 51.701 36.8625 50.9559L36.8611 50.9568H36.8607Z" fill="#242323"/>
<path d="M11.1963 27.4835C10.9265 25.0383 10.6544 22.6026 10.1652 20.1928C9.91992 19.006 9.8685 17.8027 9.38615 16.7009C9.03895 15.9399 8.45148 15.5294 7.60555 15.4578C6.52981 15.3835 5.36944 15.5988 4.31965 15.747C3.29215 14.4939 5.9965 14.5571 6.67133 14.4859C7.00852 14.4599 7.35299 14.451 7.7052 14.4841C9.85303 14.6878 10.5169 16.3424 10.8314 18.189C10.987 19.1273 11.1358 20.011 11.3178 20.9234C11.7069 23.0592 11.9472 25.2259 12.1856 27.3774C12.2115 27.7055 12.2707 28.0243 12.2211 28.3524C12.2088 28.3891 12.2065 28.3891 12.1683 28.4021C11.9722 28.4634 11.3711 28.6058 11.3287 28.4907C11.2801 28.1559 11.2391 27.8188 11.1972 27.4835H11.1963Z" fill="#242323"/>
<path fill-rule="evenodd" clip-rule="evenodd" d="M31.1542 43.221C30.3146 36.3762 24.6784 30.014 15.3293 30.8919C10.4618 31.3489 7.01151 33.4225 4.87068 36.2408C2.72891 39.0604 1.89453 42.6297 2.26886 46.0815C2.64319 49.5333 4.22581 52.8635 6.91259 55.2053C9.59821 57.546 13.3908 58.9025 18.1938 58.4024C23.1196 57.8894 26.5676 55.8028 28.6801 52.9933C30.7935 50.1826 31.5741 46.6435 31.1542 43.221ZM28.7862 53.0675C26.6501 55.9083 23.1673 58.0115 18.2078 58.5279C13.3697 59.0318 9.53948 57.6651 6.82474 55.299C4.11117 52.9339 2.51583 49.5736 2.13855 46.0946C1.76128 42.6157 2.60166 39.0142 4.76498 36.1662C6.92924 33.317 10.4144 31.2264 15.3166 30.7661C24.75 29.8804 30.438 36.3068 31.2843 43.2062C31.7075 46.6559 30.9214 50.2278 28.7862 53.0675Z" fill="#242323"/>
<path fill-rule="evenodd" clip-rule="evenodd" d="M4.2801 34.4076C6.9473 31.3417 11.0729 29.2987 16.6698 29.3163C26.6916 29.3477 32.2896 36.4502 32.7851 43.7906C33.0328 47.4593 32.0102 51.2061 29.6199 54.1781C27.2247 57.1561 23.4762 59.3306 18.3273 59.8779C12.756 60.4703 8.43009 58.8625 5.44671 56.0868C2.47234 53.3195 0.861627 49.4194 0.6492 45.4636C0.436772 41.5079 1.6209 37.4643 4.2801 34.4076ZM6.03714 55.4976C8.82612 58.0924 12.8961 59.6314 18.2341 59.0638C23.1702 58.5391 26.7035 56.467 28.948 53.6764C31.1975 50.8796 32.1726 47.3357 31.9369 43.8438C31.4656 36.863 26.1725 30.1651 16.667 30.1353C11.3054 30.1185 7.42592 32.0664 4.93153 34.9337C2.42914 37.8102 1.29514 41.6423 1.49808 45.4213C1.70102 49.2004 3.23915 52.8944 6.03714 55.4976Z" fill="#242323"/>
</svg>
