<svg width="61" height="60" viewBox="0 0 61 60" fill="none" xmlns="http://www.w3.org/2000/svg">
<g clip-path="url(#clip0_19_540)">
<path d="M20.3063 0.0358882C20.3257 0.038378 20.5915 0.109587 20.6906 0.131995C20.7897 0.154403 20.9988 0.201212 21.0749 0.228102C21.9442 0.534349 23.1749 1.75336 23.4761 2.62978C23.5089 2.77418 23.5702 2.90266 23.5721 2.9181C23.605 3.1855 23.6125 3.91053 23.5721 4.16699C23.5677 4.19487 23.4935 4.49315 23.4761 4.55141C23.2003 5.48111 22.0293 5.8984 21.8431 6.76087C21.7963 6.97798 21.7436 6.82511 21.8431 7.1453C22.0413 7.7807 22.0612 7.64675 22.6113 7.72194C23.8475 8.09691 27.9408 7.78668 29.4303 7.72194C29.6185 7.73887 29.8171 7.71049 30.0068 7.72194C30.3508 7.94204 29.8759 14.7397 30.199 15.8875C30.3692 16.4926 30.6227 16.6091 31.1593 16.752C31.5935 16.868 31.59 16.8665 32.0236 16.752C32.8908 16.5224 33.2264 15.6301 33.8482 15.407C33.9035 15.3871 34.1215 15.3139 34.1365 15.3109C34.2963 15.28 35.0336 15.28 35.1929 15.3109C35.9192 15.4523 37.019 16.6499 37.2097 17.3281C37.2306 17.4013 37.2988 17.6712 37.3057 17.7126C37.3516 17.9879 37.3466 18.9654 37.3057 19.2498C37.3028 19.2712 37.2296 19.5565 37.2097 19.6342C37.2017 19.6641 37.1295 19.8832 37.1136 19.9225C36.9164 20.4175 35.984 21.384 35.4806 21.5558C35.4164 21.5777 35.2073 21.6495 35.1924 21.6519C35.0266 21.6818 34.3973 21.6818 34.232 21.6519C34.2171 21.6495 34.008 21.5777 33.9438 21.5558C33.1154 21.2735 32.843 20.3388 31.8309 20.1147C31.47 20.0346 31.6049 20.045 31.2544 20.1147C30.5749 20.2502 30.3792 20.3299 30.198 21.0753C29.6648 23.2678 30.3981 26.8113 30.1019 29.1448L30.0058 29.2409L22.4181 29.0487C23.2117 28.6608 23.5542 27.8063 23.7628 27.0314C23.8031 26.8865 23.8335 26.8064 23.8589 26.647C23.9122 26.2083 23.9241 26.1306 23.8589 25.6864C23.843 25.4897 23.8007 25.3822 23.7628 25.2059C23.726 25.0968 23.7225 25.0495 23.6667 24.9176C23.2849 23.7016 22.344 22.9267 21.1695 22.5159C21.0272 22.4532 20.9828 22.4557 20.8813 22.4198C20.7747 22.3825 20.7125 22.3546 20.593 22.3237C20.4302 22.2943 20.2968 22.247 20.1126 22.2276C19.4993 22.1375 19.1891 22.137 18.5758 22.2276C18.3916 22.247 18.2586 22.2938 18.0953 22.3237C17.9759 22.3546 17.9136 22.3825 17.8071 22.4198C17.7005 22.4571 17.6612 22.4532 17.5188 22.5159C16.2961 22.9437 15.2964 23.7817 15.0216 25.1098C14.9893 25.2044 14.9604 25.2502 14.9255 25.3981C14.7866 25.9837 14.8235 26.2601 14.9255 26.8392C14.9529 27.0115 14.9733 27.0663 15.0216 27.2236C15.2855 28.1314 15.7764 28.4795 16.2702 29.2409L8.58646 29.0487C8.44855 28.7315 8.47295 22.4586 8.58646 22.132C8.81049 21.4881 9.94707 22.4437 10.5072 22.6125C10.6286 22.6613 10.6769 22.6728 10.7954 22.7086C10.9662 22.743 11.0856 22.7858 11.2758 22.8047C11.81 22.8964 11.9967 22.8749 12.5244 22.8047C12.7146 22.7803 12.8027 22.732 12.9088 22.7086C13.0726 22.6723 13.1094 22.6822 13.2931 22.6125C14.6139 22.1758 15.5115 21.271 15.8864 19.9225C15.9272 19.813 15.9496 19.7487 15.9825 19.6342C16.0148 19.4669 16.0586 19.3404 16.0786 19.1537C16.1796 18.573 16.1796 18.3893 16.0786 17.8087C16.0586 17.6224 16.0148 17.4955 15.9825 17.3281C15.9496 17.2136 15.9272 17.1494 15.8864 17.0398C15.506 15.6714 14.481 14.6202 13.1009 14.2537C12.9536 14.2114 12.8794 14.182 12.7166 14.1576C12.0634 14.0426 11.6437 14.0172 10.9876 14.1576C10.8293 14.1915 10.7825 14.2268 10.6993 14.2537C10.0402 14.3852 9.53884 14.6347 9.06638 15.1182C9.00465 15.1122 8.92997 15.1306 8.87421 15.1182C8.8543 15.1137 8.59194 14.8493 8.58596 14.8299C8.15483 13.4156 8.91056 9.49568 8.58596 7.81705C10.4474 7.84892 12.2984 7.81705 14.1564 7.72094C14.2828 7.71447 14.4143 7.72891 14.5407 7.72094C14.5457 7.72094 14.5377 7.72941 14.6368 7.72094C14.7622 7.71049 14.8962 7.73439 15.0211 7.72094C15.0261 7.72045 15.0007 7.73588 15.1172 7.72094C15.8754 7.69206 16.7223 8.00379 17.0379 7.24041C17.1763 6.90677 17.1375 6.97699 17.0379 6.66377C16.8189 5.9731 15.7878 5.51198 15.405 4.45431C15.3816 4.34824 15.3109 4.0898 15.3089 4.06988C15.283 3.80746 15.284 3.37274 15.3089 3.10931C15.3109 3.08939 15.3811 2.83543 15.405 2.72489C15.7654 1.70705 16.8736 0.574186 17.9022 0.227106C17.9689 0.204698 18.172 0.135481 18.1904 0.130999C18.2855 0.108591 18.5464 0.038876 18.5748 0.0348923C18.9203 -0.014904 19.9523 -0.0109203 20.3038 0.0348923L20.3063 0.0358882Z" fill="#242323"/>
<path d="M41.276 2.12514C41.2971 2.11924 41.498 2.08978 41.5705 2.07688C41.5849 2.07433 41.7458 2.06191 41.7987 2.05755C42.535 1.99787 43.8036 2.46049 44.2866 3.05923C44.3097 3.08785 44.4897 3.34934 44.5002 3.36767C44.5797 3.50861 44.6854 3.75259 44.7357 3.90712C44.7415 3.925 44.811 4.23597 44.8168 4.27343C44.8221 4.30814 44.8375 4.46792 44.8389 4.50479C44.8634 5.14802 44.2857 5.79282 44.368 6.31637C44.5243 7.31002 45.1396 6.82445 45.7518 6.59546C47.1732 6.19584 48.5408 5.45298 49.8584 4.80233C50.0377 4.73652 50.2098 4.64013 50.3881 4.57102L50.5501 4.58063L52.9798 10.145C53.2673 10.4029 53.2992 10.3045 53.5758 10.2461C53.7517 10.2089 53.6323 10.2398 53.7083 10.1882C54.2241 9.8398 54.1662 8.95722 54.6647 8.40528C54.6898 8.37766 54.7916 8.28868 54.834 8.25101C54.8621 8.22628 55.136 8.05045 55.2021 8.00993C55.3396 7.94367 55.5267 7.84699 55.6656 7.80755C55.7166 7.7932 55.9676 7.73896 56.0264 7.73036C56.0561 7.72615 56.2161 7.71249 56.2547 7.71103C56.8885 7.68903 58.0853 8.25791 58.5143 8.73204C58.5491 8.77054 58.6603 8.89429 58.6689 8.90552C58.7143 8.96645 58.8402 9.12547 58.853 9.14649C58.9912 9.36924 59.3432 10.1754 59.4125 10.4278C59.4191 10.4512 59.4503 10.6519 59.4641 10.7266C59.4665 10.7406 59.4817 10.9063 59.4862 10.958C59.5429 11.6018 59.1271 12.9227 58.6329 13.3383C58.597 13.3685 58.4127 13.5118 58.3973 13.5215C58.2428 13.6198 57.713 13.8511 57.5362 13.8975C57.519 13.9021 57.2855 13.9403 57.2417 13.9457C56.2775 14.0604 55.0854 12.6174 54.6585 13.9897L57.0882 19.5541C57.0473 19.8667 52.1495 21.5986 51.4509 22.1763C51.0479 22.5096 51.0797 22.7305 51.1789 23.1784C51.2386 23.4491 51.197 23.3549 51.3556 23.5833C51.8157 24.2457 52.5544 24.1538 52.9971 24.6332C53.0103 24.6474 53.173 24.861 53.1812 24.8741C53.2494 24.9817 53.3836 25.2899 53.4168 25.4136C53.4207 25.4281 53.4662 25.6879 53.4683 25.7124C53.5042 26.1222 53.1023 27.0461 52.8429 27.3508C52.8227 27.3747 52.7408 27.4371 52.6736 27.5051C52.6401 27.5389 52.5405 27.629 52.5043 27.6594C52.4767 27.6823 52.1776 27.8774 52.1362 27.9005C52.0111 27.9642 51.87 28.025 51.7386 28.0741C51.6932 28.0889 51.3498 28.1751 51.3116 28.1802C51.2166 28.193 51.048 28.2282 51.017 28.2285C50.5082 28.2333 49.4036 27.8727 49.1035 27.458C49.0415 27.3723 48.7389 26.681 48.7207 26.5812C48.6235 26.0479 49.1976 25.4276 49.0958 24.7311C49.0459 24.3911 49.0224 24.3232 48.8014 24.0567C48.4987 23.6922 48.4065 23.6392 47.9403 23.71C46.9275 23.8638 42.698 26.1235 42.3472 26.0719L39.9396 20.7388C40.5655 20.9064 40.9746 21.0887 41.6324 21.0037C41.7557 20.9903 41.7994 20.9883 41.9269 20.9555C42.3896 20.8504 42.5953 20.7606 42.9868 20.4927C43.0972 20.4216 43.1287 20.3908 43.2224 20.3095C44.0296 19.6369 44.2383 18.7761 44.1493 17.7364C44.1457 17.6364 44.1381 17.5973 44.1272 17.505C44.1119 17.3894 44.1029 17.3229 44.0756 17.2062C44.0328 17.0126 44.0073 16.8943 43.9358 16.7053C43.8487 16.4665 43.8165 16.3919 43.7003 16.1658C43.6102 15.9849 43.5406 15.8855 43.4279 15.7228C43.3605 15.6236 43.3184 15.5721 43.2438 15.4818C43.1834 15.4108 43.1612 15.3797 43.0892 15.3083C42.3995 14.5547 41.5162 14.0587 40.5056 14.2681C40.4316 14.2738 40.3941 14.2656 40.2773 14.2874C39.8146 14.3746 39.6016 14.4926 39.2174 14.7502C39.1057 14.8211 39.0755 14.8522 38.9819 14.9334C38.4598 15.3687 38.3887 15.7752 37.996 16.2876L35.7505 10.9642L35.883 10.9063C37.0976 10.5666 38.203 9.95071 39.3273 9.40235C39.7229 9.21587 40.2204 9.06317 40.5856 8.85292C40.6948 8.80524 40.7042 8.82402 40.8506 8.73718C41.2098 8.52418 41.2766 8.59405 41.2036 8.10102C41.1689 7.86602 41.1974 7.98384 41.0858 7.83112C40.6837 7.28196 39.7586 7.34288 39.2823 6.77161C39.2539 6.7374 39.1079 6.54638 39.0982 6.53065C38.9994 6.37358 38.7634 5.83308 38.7153 5.65382C38.7104 5.63599 38.6695 5.39994 38.6638 5.35499C38.5858 4.75422 39.1857 3.41038 39.6128 3.01326C39.6501 2.97868 39.7693 2.86877 39.7822 2.85898C39.8407 2.81426 40.0358 2.67582 40.084 2.64684C40.3137 2.50824 41.0217 2.19537 41.2764 2.12619L41.276 2.12514Z" fill="#242323"/>
<path d="M19.7298 23.4763C19.8792 23.4982 20.1759 23.5336 20.3064 23.5724C20.3746 23.5928 20.5339 23.6436 20.5946 23.6685C21.19 23.9115 22.364 24.8631 22.5153 25.4936C22.5467 25.624 22.5457 26.6045 22.5153 26.7425C22.3495 27.5014 21.3135 28.0033 21.0745 28.7597C20.9361 29.1974 20.9451 29.3797 21.0745 29.8164C21.2269 30.3308 21.4459 30.5419 21.9388 30.6808C23.0848 31.0035 29.8894 30.525 30.1025 30.8731V38.3181C29.3323 37.8774 29.0799 37.4855 28.1818 37.2131C28.0514 37.1588 28.0095 37.1539 27.8935 37.117C27.7188 37.0807 27.6098 37.0358 27.4131 37.0209C27.0432 36.9781 27.0143 36.9781 26.6449 37.0209C26.4488 37.0358 26.3393 37.0807 26.1645 37.117C26.049 37.1534 26.0057 37.1593 25.8763 37.2131C24.4848 37.6279 23.847 38.464 23.3791 39.807C23.3323 39.9255 23.3183 39.9773 23.283 40.0953C23.2402 40.2417 23.2163 40.3264 23.1869 40.4797C23.1441 40.6939 23.1072 40.8283 23.0908 41.0564C23.0609 41.4328 23.0634 41.5464 23.0908 41.9209C23.1043 42.1843 23.1361 42.3396 23.1869 42.5931C23.2163 42.746 23.2412 42.8321 23.283 42.9775C23.3188 43.0941 23.3293 43.1429 23.3791 43.2659C23.7997 44.4794 24.4494 45.315 25.6841 45.7636C25.7921 45.803 25.8564 45.8279 25.9723 45.8597C26.162 45.911 26.2586 45.9295 26.4528 45.9558C26.9526 46.0196 27.1035 46.0246 27.6053 45.9558C27.7626 45.9309 27.8477 45.8976 27.9896 45.8597C28.9808 45.5869 29.2412 45.2189 30.1025 44.7548V52.1998C29.8272 52.4752 23.4303 51.896 22.3226 52.2959C21.886 52.4538 21.9373 52.5095 21.8422 52.8725C21.7785 53.1165 21.8054 52.9677 21.8422 53.1609C21.9995 53.981 23.0988 54.4003 23.4751 55.4664C23.508 55.6113 23.5692 55.7393 23.5712 55.7548C23.6036 56.0242 23.6121 56.7472 23.5712 57.0036C23.5663 57.036 23.4936 57.3238 23.4751 57.3881C23.2188 58.271 21.9049 59.353 21.074 59.6936C20.9969 59.7255 20.8769 59.7579 20.7858 59.7897C20.7111 59.8156 20.5568 59.8694 20.4975 59.8858C20.3681 59.9212 20.0609 59.9655 19.921 59.982C19.6452 60.0029 19.233 60.0079 18.9607 59.982C18.8233 59.9695 18.528 59.9172 18.3842 59.8858C18.3692 59.8824 18.1815 59.8161 18.0959 59.7897C17.1256 59.471 15.7067 58.2969 15.4065 57.292C15.3926 57.2447 15.3174 56.8647 15.3105 56.8114C15.2836 56.6048 15.2836 56.1531 15.3105 55.947C15.3169 55.8967 15.3936 55.5083 15.4065 55.4664C15.6978 54.5133 16.8204 54.0144 17.0395 53.3531C17.1465 53.0294 17.1649 53.1106 17.0395 52.7764C16.9832 52.627 17.0679 52.4368 16.7995 52.2959C16.7502 52.27 16.6263 52.3158 16.5596 52.2959C15.4509 51.9687 8.79614 52.4438 8.58804 52.1037V44.1781C7.30957 42.8032 6.78882 45.0914 5.51483 45.4748C5.43169 45.4997 5.24151 45.5679 5.22658 45.5709C4.97765 45.6177 4.05813 45.6053 3.78581 45.5709C3.77087 45.5689 3.6479 45.5077 3.49755 45.4748C2.56907 45.1452 1.40112 43.8948 1.09644 42.977C1.06557 42.8834 1.02325 42.6952 1.00035 42.5926C0.977452 42.49 0.912234 42.1798 0.904269 42.1121C0.864441 41.7774 0.863445 41.0046 0.904269 40.671C0.906758 40.6515 0.97795 40.3841 1.00035 40.2865C1.02425 40.1825 1.06507 39.9952 1.09644 39.9021C1.36826 39.1009 2.57405 37.7425 3.40147 37.5004C3.48959 37.4745 3.67479 37.4073 3.68972 37.4043C3.90778 37.3645 5.01101 37.3635 5.22658 37.4043C5.24151 37.4073 5.43517 37.476 5.51483 37.5004C6.46522 37.7932 6.83761 38.9834 7.72377 39.1338C7.84176 39.1537 7.66503 39.187 7.91594 39.1338C8.26643 39.0591 8.41628 39.0835 8.58804 38.7015V30.8721C8.79863 30.528 15.4922 30.9657 16.6556 30.6798C17.4417 30.4871 17.6045 30.1983 17.7121 29.431C17.7459 29.1894 17.7524 29.2985 17.7121 29.0465C17.5224 27.8579 16.585 27.7603 16.2713 26.8371C16.2594 26.8027 16.1777 26.4726 16.1752 26.4526C16.1533 26.2878 16.1528 25.9447 16.1752 25.7804C16.1777 25.761 16.2594 25.4308 16.2713 25.396C16.4719 24.8054 17.5259 23.8727 18.0959 23.6665C18.1552 23.6451 18.3523 23.5784 18.3842 23.5704C18.5231 23.5351 18.8148 23.4918 18.9607 23.4743C19.1802 23.4479 19.4984 23.4649 19.7289 23.4743L19.7298 23.4763Z" fill="#242323"/>
<path d="M38.0748 32.6026C38.0171 32.7391 38.0146 32.7869 37.9787 32.8909C37.9409 33.0672 37.8991 33.1748 37.8827 33.3715C37.8289 33.7808 37.8289 33.8266 37.8827 34.2359C37.8986 34.4301 37.9439 34.5442 37.9787 34.7165C38.0151 34.828 38.0255 34.8833 38.0748 35.0048C38.4781 36.3642 39.4847 37.2352 40.8603 37.5987C41.0345 37.6604 41.1037 37.6564 41.2446 37.6948C41.4059 37.7227 41.5379 37.775 41.725 37.7909C42.2572 37.8686 42.4489 37.8477 42.9736 37.7909C43.1628 37.772 43.2848 37.7281 43.4541 37.6948C43.6004 37.6639 43.696 37.639 43.8384 37.5987C43.9549 37.5628 44.0037 37.5529 44.1267 37.5026C45.3947 37.039 46.3446 36.2582 46.7199 34.9087C46.7652 34.7573 46.7906 34.6881 46.816 34.5243C46.9126 33.9591 46.941 33.7519 46.816 33.1793C46.7822 33.0239 46.7453 32.9711 46.7199 32.8909C46.6831 32.7759 46.6866 32.7445 46.6239 32.6026C46.357 31.7148 45.9602 31.5315 45.5191 30.7776L53.1546 30.8737C52.8325 32.4169 53.5808 36.66 53.1546 37.8865C52.9311 38.5294 51.6521 37.4762 51.0417 37.3099C50.8944 37.268 50.8192 37.2387 50.6574 37.2138C50.0182 37.1012 49.6667 37.0858 49.0245 37.2138C48.8383 37.2377 48.7288 37.2924 48.6401 37.3099C48.5207 37.3467 48.4848 37.3497 48.3519 37.406C47.1501 37.7765 46.3734 38.6504 45.9508 39.8076C45.8786 39.9625 45.889 39.9989 45.8547 40.096C45.8168 40.202 45.79 40.2683 45.7586 40.3843C45.7277 40.5506 45.6799 40.6761 45.6625 40.8648C45.5983 41.3927 45.5853 41.5814 45.6625 42.1137C45.6794 42.3024 45.7277 42.4284 45.7586 42.5942C45.7969 42.7287 45.7825 42.7884 45.8547 42.9787C46.2599 44.3899 47.1466 45.2404 48.5441 45.6687C48.6441 45.704 48.68 45.7299 48.8323 45.7648C49.0543 45.8156 49.1798 45.84 49.4088 45.8609C49.838 45.9007 49.9271 45.9261 50.3692 45.8609C50.5573 45.841 50.6793 45.7991 50.8496 45.7648C50.9596 45.7294 51.0203 45.7145 51.1378 45.6687C51.7183 45.5008 52.5856 44.8132 52.6747 44.8042C52.7867 44.7927 53.1402 45.0477 53.1551 45.0925C53.5847 46.3937 52.8305 50.5084 53.1551 52.1053C52.947 52.4454 46.2848 51.9649 45.1836 52.2975C44.5558 52.4873 44.504 52.7596 44.7032 53.3542C44.9043 53.9552 45.9617 54.5065 46.3361 55.5637C46.3585 55.6707 46.4307 55.9282 46.4322 55.9481C46.4511 56.1831 46.4616 56.587 46.4322 56.8126C46.4252 56.8653 46.35 57.2458 46.3361 57.2931C46.0324 58.3084 44.6369 59.4647 43.6467 59.7909C43.5596 59.8173 43.3734 59.8835 43.3585 59.887C43.2146 59.9184 42.9199 59.9706 42.782 59.9831C42.5101 60.009 42.0964 60.0045 41.8216 59.9831C41.6832 59.9667 41.3736 59.9223 41.2451 59.887C41.1251 59.8536 40.9589 59.8262 40.8608 59.7909C39.9935 59.4782 38.5333 58.288 38.2675 57.3892C38.2501 57.3304 38.1759 57.0332 38.1714 57.0048C38.1306 56.7458 38.1391 56.0268 38.1714 55.7559C38.1734 55.7409 38.2346 55.613 38.2675 55.4676C38.62 54.4672 39.7142 53.9577 39.9004 53.2581C39.9701 52.9957 39.9786 53.1461 39.9004 52.8737C39.7974 52.5156 39.8681 52.4589 39.42 52.297C38.3546 51.9121 31.8657 52.4703 31.6402 52.1531C31.3186 49.9551 32.1101 46.1407 31.5441 44.1314C31.336 43.3925 30.9457 43.2695 30.2955 43.1709C30.0909 43.14 30.1984 43.147 30.0072 43.1709C29.8161 43.1948 29.8071 43.1933 29.6229 43.267C28.8831 43.5638 28.444 44.3814 27.7022 44.612C27.6539 44.6269 27.3378 44.7056 27.3179 44.7081C27.1531 44.7295 26.8081 44.7315 26.6458 44.7081C26.6263 44.7051 26.2913 44.6224 26.2614 44.612C25.6491 44.3998 24.8849 43.4607 24.6285 42.8826C24.5767 42.7113 24.5349 42.7008 24.5324 42.6903C24.5095 42.5823 24.4388 42.3258 24.4363 42.3059C24.3955 41.9718 24.3905 41.0964 24.4363 40.7687C24.4388 40.7493 24.512 40.464 24.5324 40.3843C24.5394 40.3579 24.6131 40.1353 24.6285 40.096C24.8421 39.5557 25.8875 38.488 26.4531 38.3665C26.5935 38.3362 27.5698 38.3347 27.7017 38.3665C28.3912 38.5324 28.8323 39.5626 29.7185 39.8076C30.1511 39.9271 30.2442 39.9356 30.6788 39.8076C31.2643 39.6353 31.3828 39.5567 31.5431 38.9432C31.8204 37.884 31.4102 30.9434 31.783 30.7776H39.2746C38.7549 31.4439 38.3327 31.778 38.0738 32.6026H38.0748Z" fill="#242323"/>
</g>
<defs>
<clipPath id="clip0_19_540">
<rect width="60" height="60" fill="white" transform="translate(0.875)"/>
</clipPath>
</defs>
</svg>
