<svg width="101" height="60" viewBox="0 0 101 60" fill="none" xmlns="http://www.w3.org/2000/svg">
<g clip-path="url(#clip0_19_518)">
<path d="M73.9472 35.0224C74.6087 35.0321 75.4607 34.9055 76.0662 35.1731C76.9397 35.559 78.5973 38.5755 79.5987 38.9445C82.261 39.9271 91.8096 38.2175 93.5866 39.2459C94.1901 39.5955 94.9301 41.2762 95.7767 41.5849L95.5648 41.8115L47.8745 44.1753L0.124512 41.5849C2.31564 40.0899 2.95135 37.3578 4.2927 35.1731C27.4958 35.5915 50.7527 34.6824 73.9461 35.0224H73.9472Z" fill="#242323"/>
<path d="M106.915 21.7624C108.004 21.7041 108.784 22.2158 108.892 22.2183C110.686 22.2657 112.475 21.9278 114.255 21.7624C114.558 21.912 114.819 24.4487 114.396 24.6516C113.091 24.9458 110.442 24.6687 109.314 25.1074C108.891 25.2727 108.762 25.9838 107.62 26.1722C105.881 26.4591 105.48 25.5997 104.091 25.5645C92.9167 27.2321 81.4959 27.4521 70.3577 29.3665C70.1363 29.4042 69.7387 29.5877 69.44 29.595C69.4389 30.0374 69.9654 31.417 69.5109 31.6479L27.6606 31.5713L29.7067 23.5869H66.8276C67.4047 23.7668 68.3879 26.1066 68.5212 26.1722C68.8059 26.3132 72.855 25.5657 73.603 25.5645C75.0032 25.5608 75.7521 25.996 76.9901 26.0203C82.7349 26.1321 91.4262 24.3757 97.4558 23.7388C99.7909 23.4921 102.17 23.4617 104.514 23.283C105.11 22.0238 105.579 21.8329 106.913 21.7624H106.915Z" fill="#242323"/>
<path d="M59.5448 44.8532V45.0077C57.3126 45.2746 55.6297 47.9348 54.9919 50.1094C53.8049 43.2766 44.0529 43.221 42.9448 50.1094C41.2117 43.3483 32.1966 43.1493 30.6171 50.1094C29.5453 44.5987 22.8242 43.2778 19.7612 47.4047C19.4573 47.8137 19.0008 49.3767 18.7107 49.4916C18.4206 49.6066 12.8333 49.6164 12.5464 49.4916C12.1123 49.0369 13.182 47.8915 13.3164 47.2503C13.4817 46.4632 13.3324 45.6428 13.3868 44.8532C28.7785 44.8409 44.1595 44.8186 59.5438 44.8532H59.5448Z" fill="#242323"/>
<path d="M26.936 32.3071H68.7531L68.965 34.0149L26.936 34.2852V32.3071Z" fill="#242323"/>
<path d="M39.9797 1.98882C41.0691 1.8509 41.3375 3.01721 40.2491 3.36693C40.4837 6.31678 40.2213 9.27895 40.3895 12.2257C40.4098 12.5921 40.3948 14.7372 40.5298 14.8449C40.6508 14.941 41.2154 14.8006 41.3739 14.9989C41.707 15.4163 40.9786 18.4068 41.5849 18.581C42.5179 18.711 46.8573 18.2024 45.5247 19.1204L34.1991 18.9277C33.9045 18.2603 37.6451 18.7307 38.3499 18.581C39.2208 18.3963 38.3264 15.2261 38.7013 14.9219C38.7923 14.848 39.5079 14.9514 39.6857 14.691L39.826 3.36693C39.1951 3.18469 38.9894 2.09472 39.826 1.98882H39.9797Z" fill="#242323"/>
<path d="M13.7634 31.6479H24.7748C25.5121 31.7332 25.5787 33.4288 25.41 33.8841C25.1262 34.6483 13.9902 34.0489 12.493 34.2449C12.1716 34.0616 13.5065 31.89 13.7634 31.6491V31.6479Z" fill="#242323"/>
<path d="M75.4868 44.9903V44.8386C78.5483 44.8568 81.6132 44.824 84.6758 44.8386C84.5202 46.4302 84.7586 47.8033 85.6317 49.1679C85.5523 49.4581 80.2509 49.5054 79.971 49.3961C79.8031 49.3306 78.5853 46.9498 77.9125 46.3574C77.5073 46.0016 75.9536 45.0547 75.4868 44.9903Z" fill="#242323"/>
<path d="M75.4869 44.8456V44.9894C75.2894 44.9641 71.7641 45.0871 71.5014 45.1331C69.4679 45.4908 68.2023 47.8505 67.2986 49.4501C66.3419 45.822 63.0482 44.6133 59.5449 44.9905V44.8468C64.8512 44.8583 70.1818 44.8146 75.4869 44.8468V44.8456Z" fill="#242323"/>
<path fill-rule="evenodd" clip-rule="evenodd" d="M51.4448 48.6172C50.7611 48.0932 49.817 47.8135 48.5954 48.1084C47.3666 48.405 46.6424 49.0872 46.2514 49.8504C45.8476 50.6382 45.7467 51.6166 45.9503 52.5647C46.1538 53.5123 46.6474 54.3616 47.3501 54.8995C48.0336 55.4228 48.9805 55.7031 50.2103 55.4063C51.4409 55.1094 52.1634 54.4274 52.5525 53.666C52.9543 52.8797 53.0535 51.9024 52.8482 50.954C52.643 50.0061 52.1478 49.1559 51.4448 48.6172ZM54.5051 54.8976C53.775 56.3264 52.4886 57.4093 50.6869 57.8441L50.6869 57.8441C48.8864 58.2786 47.2995 57.8903 46.0761 56.9537C44.8718 56.0318 44.0854 54.6299 43.7662 53.1436C43.4472 51.6577 43.581 50.0193 44.3001 48.6162C45.0317 47.1883 46.3183 46.1052 48.1187 45.6706C49.914 45.2372 51.4979 45.6274 52.7197 46.5637C53.9222 47.4852 54.7098 48.8856 55.0313 50.3707C55.3528 51.8553 55.2225 53.4937 54.5051 54.8976Z" fill="#242323"/>
<path fill-rule="evenodd" clip-rule="evenodd" d="M63.7636 48.1221C63.0799 47.5706 62.1358 47.2761 60.9142 47.5865C59.6854 47.8987 58.9613 48.6168 58.5702 49.4202C58.1665 50.2496 58.0655 51.2794 58.2691 52.2774C58.4726 53.2749 58.9662 54.1689 59.6689 54.7351C60.3524 55.2859 61.2994 55.581 62.5291 55.2686C63.7597 54.956 64.4823 54.2382 64.8714 53.4366C65.2732 52.6089 65.3724 51.5803 65.1671 50.582C64.9618 49.5841 64.4666 48.6892 63.7636 48.1221ZM66.824 54.7331C66.0939 56.2371 64.8075 57.377 63.0057 57.8347L63.0057 57.8347C61.2052 58.292 59.6183 57.8833 58.3949 56.8974C57.1906 55.927 56.4042 54.4513 56.0851 52.8868C55.766 51.3227 55.8999 49.5981 56.6189 48.1211C57.3506 46.6181 58.6371 45.4779 60.4375 45.0205C62.2328 44.5643 63.8168 44.975 65.0385 45.9605C66.241 46.9306 67.0287 48.4046 67.3502 49.9679C67.6716 51.5307 67.5414 53.2553 66.824 54.7331Z" fill="#242323"/>
<path fill-rule="evenodd" clip-rule="evenodd" d="M75.848 48.1221C75.1215 47.5706 74.1185 47.2761 72.8205 47.5865C71.5149 47.8987 70.7455 48.6168 70.33 49.4202C69.901 50.2496 69.7938 51.2794 70.0101 52.2774C70.2263 53.2749 70.7508 54.1689 71.4973 54.7351C72.2236 55.2859 73.2297 55.581 74.5363 55.2686C75.8438 54.956 76.6115 54.2382 77.0249 53.4366C77.4519 52.6089 77.5573 51.5803 77.3391 50.582C77.1211 49.5841 76.5949 48.6892 75.848 48.1221ZM79.0996 54.7331C78.3239 56.2371 76.957 57.377 75.0427 57.8347L75.0427 57.8347C73.1297 58.292 71.4436 57.8833 70.1437 56.8974C68.8642 55.927 68.0286 54.4513 67.6895 52.8868C67.3505 51.3227 67.4927 49.5981 68.2567 48.1211C69.0341 46.6181 70.401 45.4779 72.314 45.0205C74.2215 44.5643 75.9045 44.975 77.2026 45.9605C78.4802 46.9306 79.3171 48.4046 79.6587 49.9679C80.0002 51.5307 79.8618 53.2553 79.0996 54.7331Z" fill="#242323"/>
<path fill-rule="evenodd" clip-rule="evenodd" d="M26.0825 48.6172C25.3988 48.0932 24.4547 47.8135 23.2331 48.1084C22.0043 48.405 21.2801 49.0872 20.889 49.8504C20.4853 50.6382 20.3844 51.6166 20.588 52.5647C20.7915 53.5123 21.2851 54.3616 21.9878 54.8995C22.6713 55.4228 23.6182 55.7031 24.848 55.4063C26.0786 55.1094 26.8011 54.4274 27.1902 53.666C27.592 52.8797 27.6912 51.9024 27.4859 50.954C27.2807 50.0061 26.7855 49.1559 26.0825 48.6172ZM29.1428 54.8976C28.4127 56.3264 27.1263 57.4093 25.3246 57.8441C23.5241 58.2786 21.9372 57.8903 20.7138 56.9537C19.5095 56.0318 18.7231 54.6299 18.4039 53.1436C18.0849 51.6577 18.2187 50.0193 18.9378 48.6162C19.6694 47.1883 20.956 46.1052 22.7564 45.6706C24.5517 45.2372 26.1356 45.6274 27.3574 46.5637C28.5599 47.4852 29.3475 48.8856 29.669 50.3707C29.9904 51.8553 29.8602 53.4937 29.1428 54.8976Z" fill="#242323"/>
<path fill-rule="evenodd" clip-rule="evenodd" d="M38.4013 48.1221C37.7176 47.5706 36.7735 47.2761 35.5519 47.5865C34.3231 47.8987 33.599 48.6168 33.2079 49.4202C32.8042 50.2496 32.7032 51.2794 32.9068 52.2774C33.1103 53.2749 33.6039 54.1689 34.3066 54.7351C34.9901 55.2859 35.9371 55.581 37.1668 55.2686C38.3974 54.956 39.12 54.2382 39.5091 53.4366C39.9109 52.6089 40.0101 51.5803 39.8048 50.582C39.5995 49.5841 39.1043 48.6892 38.4013 48.1221ZM41.4617 54.7331C40.7316 56.2371 39.4452 57.377 37.6434 57.8347L37.6434 57.8347C35.8429 58.292 34.256 57.8833 33.0326 56.8974C31.8283 55.927 31.0419 54.4513 30.7228 52.8868C30.4037 51.3227 30.5376 49.5981 31.2566 48.1211C31.9883 46.6181 33.2748 45.4779 35.0752 45.0205C36.8705 44.5643 38.4545 44.975 39.6762 45.9605C40.8787 46.9306 41.6664 48.4046 41.9879 49.9679C42.3093 51.5307 42.1791 53.2553 41.4617 54.7331Z" fill="#242323"/>
<path d="M34.4599 20.439H58.0094C58.233 20.4547 58.541 20.4261 58.7297 20.5378C59.0704 20.9231 59.3784 22.0704 59.545 22.417C59.218 22.4127 58.426 22.4156 58.0094 22.4113H34.4599C33.9884 22.4113 33.1057 22.4055 32.7334 22.4055C32.8547 21.9357 33.1321 20.8572 33.2154 20.5364C33.227 20.4905 33.2344 20.4619 33.2365 20.4547C33.2291 20.4504 33.6836 20.4504 34.4599 20.4404V20.439Z" fill="#242323"/>
<path fill-rule="evenodd" clip-rule="evenodd" d="M52.6607 1.97754C53.261 1.97754 53.7476 2.6269 53.7476 3.42792V20.9667C53.7476 21.7677 53.261 22.4171 52.6607 22.4171C52.0604 22.4171 51.5737 21.7677 51.5737 20.9667V3.42792C51.5737 2.6269 52.0604 1.97754 52.6607 1.97754Z" fill="#242323"/>
<path fill-rule="evenodd" clip-rule="evenodd" d="M93.108 42.2719C93.6998 42.0358 94.3516 42.3782 94.5638 43.0366C95.1921 44.9861 95.2086 46.6852 94.6456 48.1546C94.0944 49.593 93.0603 50.618 91.9378 51.403C90.8183 52.1858 89.5014 52.8035 88.2637 53.3639C88.1145 53.4314 87.9666 53.4981 87.82 53.5642C86.7137 54.0629 85.6833 54.5273 84.7856 55.063C84.2989 55.3534 83.4913 55.9332 82.5463 56.6115C82.064 56.9577 81.5459 57.3295 81.0164 57.7018C80.2598 58.2337 79.494 58.7552 78.8344 59.154C78.5051 59.353 78.185 59.5321 77.8948 59.6686C77.6303 59.793 77.2928 59.9302 76.9598 59.9624L76.9597 59.9624C76.3968 60.0168 75.5514 59.9268 74.8639 59.8516C74.7939 59.8439 74.725 59.8363 74.6572 59.8289C73.9746 59.7538 73.4094 59.6915 73.0661 59.6978L73.0655 59.6978C64.8936 59.8409 56.7131 59.8316 48.5348 59.8224C48.0852 59.8219 47.6356 59.8214 47.186 59.8209C38.5548 59.8116 29.9254 59.8117 21.2891 59.9992C21.0918 60.0035 20.8969 59.9507 20.7235 59.8458L7.96628 52.1355C7.41382 51.8016 7.20927 51.0326 7.50939 50.418C7.80951 49.8033 8.50066 49.5758 9.05311 49.9097L21.5459 57.4602C30.1079 57.2785 38.6587 57.2787 47.1882 57.2878C47.636 57.2883 48.0838 57.2888 48.5315 57.2893C56.7145 57.2986 64.8774 57.3078 73.0296 57.1651C73.515 57.1563 74.2237 57.235 74.8561 57.3052C74.9343 57.3139 75.0114 57.3225 75.0868 57.3307C75.8504 57.4143 76.4458 57.4671 76.7528 57.4398C76.752 57.4398 76.7517 57.4398 76.7516 57.4397C76.7514 57.4382 76.8274 57.4205 77.0084 57.3354C77.2032 57.2438 77.4512 57.1073 77.7473 56.9283C78.3384 56.5709 79.0525 56.0861 79.8002 55.5604C80.2523 55.2426 80.7238 54.9043 81.1836 54.5744C82.19 53.8523 83.1405 53.1703 83.7094 52.8308L83.7094 52.8307C84.7235 52.2257 85.8775 51.7061 86.9677 51.2152C87.115 51.1489 87.261 51.0831 87.4054 51.0177C88.656 50.4515 89.7976 49.9078 90.7262 49.2584C91.6518 48.6111 92.2555 47.933 92.5512 47.1612C92.835 46.4206 92.9076 45.4025 92.4206 43.8916C92.2084 43.2332 92.5162 42.508 93.108 42.2719Z" fill="#242323"/>
<path fill-rule="evenodd" clip-rule="evenodd" d="M10.0603 42.4579C10.5439 42.0239 11.228 42.1443 11.5882 42.727C12.6719 44.4796 12.6336 46.734 11.9851 48.5062C11.3342 50.2846 9.97156 51.847 8.12534 52.0772L8.12373 52.0774C7.93127 52.101 7.72778 52.0777 7.5912 52.0584C7.43022 52.0356 7.24883 52.0002 7.06158 51.9582C6.68567 51.8739 6.24398 51.7532 5.81458 51.6198C5.38649 51.4868 4.95196 51.3354 4.59362 51.1865C4.41591 51.1126 4.24008 51.0324 4.08653 50.9483C3.97726 50.8885 3.73099 50.7511 3.53695 50.5176C3.53677 50.5174 3.53659 50.5171 3.5364 50.5169C3.20668 50.12 2.97927 49.5988 2.82071 49.1258C2.65498 48.6314 2.52934 48.0826 2.44318 47.5424C2.28052 46.5226 2.21868 45.2768 2.45135 44.3698C2.62942 43.6756 3.24084 43.2868 3.81701 43.5013C4.39318 43.7159 4.7159 44.4525 4.53784 45.1467C4.46413 45.434 4.44768 46.1674 4.58779 47.0458C4.65301 47.4547 4.74311 47.8346 4.84565 48.1405C4.91701 48.3534 4.98143 48.4914 5.02641 48.5722C5.09255 48.6063 5.18543 48.6492 5.30579 48.6992C5.59141 48.8179 5.96629 48.9498 6.35985 49.072C6.75211 49.1939 7.14432 49.3004 7.46138 49.3716C7.62062 49.4073 7.75048 49.4317 7.84636 49.4453C7.89287 49.4519 7.92125 49.4544 7.93489 49.4554C8.81517 49.3284 9.58141 48.5525 9.98682 47.4447C10.3997 46.3164 10.3409 45.1139 9.8369 44.2988C9.47664 43.7161 9.57665 42.8919 10.0603 42.4579ZM4.93901 48.5223C4.93929 48.5223 4.94366 48.525 4.95127 48.5306C4.94254 48.5252 4.93873 48.5224 4.93901 48.5223Z" fill="#242323"/>
<path fill-rule="evenodd" clip-rule="evenodd" d="M90.8155 40.9841L90.8157 40.9841C93.8629 41.6819 95.2697 44.4328 95.0249 46.8727C94.9031 48.0874 94.3685 49.3348 93.3376 50.2379C92.2717 51.1717 90.8737 51.5634 89.3796 51.3869C87.7645 51.1965 86.3588 50.4319 85.55 49.0364C84.7897 47.7247 84.8001 46.2694 85.0889 45.1302C85.3793 43.9851 86.0137 42.8747 86.9176 42.0715C87.8357 41.2556 89.2203 40.619 90.8155 40.9841ZM90.2869 43.4147C87.6863 42.8194 85.5008 48.4235 89.6574 48.9129C93.2705 49.3399 93.7086 44.1981 90.2869 43.4147Z" fill="#242323"/>
<path fill-rule="evenodd" clip-rule="evenodd" d="M8.20664 40.9841L8.20684 40.9841C11.2541 41.6819 12.6608 44.4328 12.416 46.8727C12.2942 48.0874 11.7597 49.3348 10.7287 50.2379C9.66282 51.1717 8.26482 51.5634 6.77073 51.3869C5.15563 51.1965 3.7499 50.4319 2.94111 49.0364C2.18085 47.7247 2.19118 46.2694 2.48003 45.1302C2.77037 43.9851 3.40485 42.8747 4.30872 42.0715C5.22684 41.2556 6.61145 40.619 8.20664 40.9841ZM7.67806 43.4147C5.07744 42.8194 2.89191 48.4235 7.04854 48.9129C10.6617 49.3399 11.0997 44.1981 7.67806 43.4147Z" fill="#242323"/>
</g>
<defs>
<clipPath id="clip0_19_518">
<rect width="100" height="60" fill="white" transform="translate(0.125)"/>
</clipPath>
</defs>
</svg>
