<svg width="81" height="60" viewBox="0 0 81 60" fill="none" xmlns="http://www.w3.org/2000/svg">
<g clip-path="url(#clip0_29_1676)">
<path d="M36.7866 31.1882C38.9907 30.8519 42.3413 31.601 44.7109 31.1882C44.7645 32.0833 44.8197 33.0266 45.5912 33.6391C46.5884 34.4296 47.3326 33.9217 48.4214 34.1904C48.1683 34.828 48.1871 37.3292 47.4779 37.3149C46.516 37.2957 45.3543 34.9814 45.0252 35.7832L44.8364 43.9318C44.4973 44.0782 37.7621 44.06 37.4153 43.9318C36.575 43.6206 37.5065 36.6176 37.101 35.7832C37.019 35.6141 36.6454 35.5243 36.535 35.5993C36.3001 35.7591 35.1207 40.2293 34.8372 40.9296C34.4884 41.7901 32.7815 45.4704 32.0069 45.6469C28.1511 46.5276 32.2064 40.3225 32.5729 39.3363C33.441 37.0003 33.8324 31.6385 36.7866 31.1877V31.1882Z" fill="#242323"/>
<path d="M37.2898 44.5442L45.0253 44.6053V58.8194C44.5773 59.8939 42.9058 60.3259 42.2578 59.3096C41.3927 57.9525 42.393 49.3172 42.0062 47.179C41.5486 46.3111 40.3646 46.3027 40.1196 47.3013C39.4367 50.0845 40.8192 56.081 40.1196 58.8194C39.8194 59.9945 37.7672 60.3432 37.2266 59.0645L37.2893 44.5442H37.2898Z" fill="#242323"/>
<path d="M40.3085 22.6106C44.6543 22.1791 46.4403 27.6608 42.8244 29.7177C37.2748 32.8747 34.3519 23.2024 40.3085 22.6106Z" fill="#242323"/>
<path d="M52.51 12.5631C52.8314 12.5291 54.9828 12.5054 55.1514 12.5631C55.4652 12.6701 56.5566 15.1728 57.038 15.5042C57.6359 15.5924 58.5192 12.7441 59.1763 12.5631C61.2487 11.9931 64.7897 12.9137 65.6543 15.0751C66.3934 16.9224 68.5423 28.6881 68.6734 30.882C68.8181 33.3063 66.9249 34.5781 65.2772 32.4748L62.6358 17.1581C62.4318 16.915 62.2105 16.7242 61.881 16.913C62.248 19.253 62.13 21.6802 62.3842 24.0201C62.9299 29.0446 64.9522 35.7887 65.0256 40.5622C65.0327 41.0164 65.141 41.4666 64.7112 41.7265C63.6011 42.3967 52.3014 41.226 50.1201 41.8488L49.5542 41.4198C50.4684 33.2496 52.5601 25.0828 52.2584 16.8519C51.8807 16.7005 51.7714 17.2622 51.6924 17.526C50.3489 22.012 50.2107 27.7457 48.925 32.3525C47.8467 34.2649 45.3486 33.6944 45.4032 31.495C45.4417 29.9485 48.2233 16.1102 48.7994 14.8305C49.419 13.4542 51.05 12.7184 52.51 12.5636V12.5631Z" fill="#242323"/>
<path d="M58.5476 42.4613L61.755 42.5225V58.8195C60.8995 60.3906 58.9541 60.3561 58.4849 58.5744L58.5476 42.4613Z" fill="#242323"/>
<path d="M52.7615 42.4613L55.9689 42.5225V58.8195C55.1412 60.3251 53.2606 60.4217 52.6987 58.6972L52.7615 42.4618V42.4613Z" fill="#242323"/>
<path d="M56.1578 0.0646111C63.54 -0.782098 64.4101 6.86196 63.4534 12.1952L59.4913 11.889C61.8037 10.4747 63.2003 7.88126 62.0072 5.2721C60.9188 2.89224 55.929 1.76148 53.7685 3.12795C51.0805 4.82729 51.6586 10.6147 54.8376 11.7667L50.8127 12.134C50.6842 7.76094 50.0144 0.769298 56.1584 0.0646111H56.1578Z" fill="#242323"/>
<path d="M60.5599 4.84361C62.1601 4.76619 61.6954 8.44841 61.1259 9.43862C58.4035 14.1722 51.034 10.7144 53.0128 5.57887C55.1121 5.98225 57.1096 5.88313 59.1759 5.45657C59.4665 5.39641 60.4835 4.84756 60.5594 4.8441L60.5599 4.84361Z" fill="#242323"/>
<path d="M55.6548 3.12802C56.2962 3.05503 60.0548 3.76366 59.9945 4.2923C57.9996 5.37374 55.5971 5.30569 53.391 4.96642C52.5841 4.52112 54.983 3.20494 55.6553 3.12851L55.6548 3.12802Z" fill="#242323"/>
<path d="M6.97593 11.9506C7.31155 11.9131 9.13797 11.886 9.36577 11.9506C9.55357 12.0038 12.11 14.4138 12.196 14.5849C12.2638 14.721 12.0993 15.6412 12.3848 15.7492C12.884 15.9375 12.7989 14.6465 12.9508 14.3398C13.0302 14.1795 15.4778 11.9935 15.655 11.9506C16.1283 11.8357 18.7813 12.0433 19.3027 12.1956C20.1466 12.4427 21.5772 13.7184 22.0069 14.4626C23.067 16.298 23.8318 26.998 23.8936 29.6565C23.9149 30.5693 23.9204 34.9468 23.7681 35.5381C23.3444 37.1797 20.3218 36.7108 20.3719 34.8028L19.3655 18.2607C19.1615 18.0176 18.9403 17.8267 18.6108 18.0156L18.0448 31.1882L6.66157 31.0042L6.40999 18.1384L5.84404 17.9545L4.52333 32.8421C2.82549 35.4488 0.837077 34.4675 0.87555 31.4944C0.909466 28.8724 2.08591 15.8848 3.13984 14.217C3.89663 13.0192 5.55853 12.1084 6.97644 11.9501L6.97593 11.9506Z" fill="#242323"/>
<path d="M6.72412 31.9233L18.3589 31.9845V58.2068C17.5566 60.204 15.3505 60.6962 14.0824 58.8193C13.5054 51.376 13.9903 43.7738 13.8309 36.2733C13.1034 35.2633 11.8212 35.1238 11.1894 36.2733L11.0639 58.4519C10.1355 60.4141 7.75578 60.5719 6.7874 58.5742L6.72463 31.9233H6.72412Z" fill="#242323"/>
<path d="M12.1332 0.554691C19.6125 -0.09082 19.6181 10.4612 13.0135 10.7251C6.42157 10.9884 5.73059 1.107 12.1332 0.554691Z" fill="#242323"/>
<path d="M10.498 11.9506L14.5862 12.0117C14.0537 12.1907 12.8605 13.8738 12.3852 13.7885C12.2541 13.7648 10.6049 12.2785 10.4986 11.9506H10.498Z" fill="#242323"/>
<path d="M68.7361 33.2713C69.5172 33.185 69.5344 36.3169 70.3712 36.5797C70.601 36.6517 71.1867 36.5018 71.3776 36.5797C71.534 36.6433 72.4487 39.0843 73.3903 39.1529C74.1309 38.9862 75.2476 36.6428 75.403 36.5797C76.42 36.166 78.5876 36.772 79.2396 37.744C79.6304 38.3269 80.9207 46.1554 80.8746 47.0563C80.8114 48.2956 79.1728 49.0086 78.4848 47.6688L77.1641 39.1529C76.9667 39.1401 76.7039 39.1174 76.5981 39.3368C76.2058 40.15 76.993 45.2071 76.5981 46.1988C76.587 46.2269 76.3126 46.4942 76.2838 46.505C76.0109 46.6081 70.5534 46.5819 70.435 46.3211L70.3095 40.4395C70.1601 40.1298 69.009 40.438 68.6116 40.2555C67.8336 39.899 67.384 35.265 66.5361 34.3128C66.568 34.1037 67.4342 34.2107 67.6053 34.1288C67.9227 33.9774 68.6663 33.2792 68.7371 33.2713H68.7361Z" fill="#242323"/>
<path d="M71.2516 47.1174C71.7725 47.0311 76.4808 47.0612 76.5972 47.3014L76.4717 59.0646C76.0885 60.1287 74.3745 60.1928 74.0819 59.0646C73.5417 56.9825 74.6721 51.7686 74.0819 49.8745C73.9249 49.3715 73.4086 49.3557 72.95 49.5071C72.6736 49.8873 73.24 57.5334 72.95 58.8195C72.6716 60.0533 70.7484 60.3418 70.4341 58.9418V47.3009C70.7039 47.2925 71.0451 47.1514 71.2516 47.1169V47.1174Z" fill="#242323"/>
<path d="M72.635 29.1053C76.7688 28.439 78.0561 33.4779 74.8993 34.9869C70.3196 37.1754 68.4836 29.7744 72.635 29.1053Z" fill="#242323"/>
<path d="M72.3833 36.4573C72.6673 36.3952 74.6268 36.4149 74.7103 36.6413C73.4494 38.7189 73.2428 38.5773 71.9429 36.6413C72.0968 36.6344 72.3392 36.4672 72.3833 36.4573Z" fill="#242323"/>
<path d="M24.4601 35.8443C24.5669 35.8083 26.6206 35.7994 26.7244 35.8443C27.1036 36.008 26.8064 36.8651 26.9132 37.1309C27.0838 37.5555 27.8437 38.3272 28.1084 38.7849C28.3038 38.8135 29.4863 37.3193 29.5552 37.1309C29.6427 36.8903 29.4377 35.9691 29.6179 35.8443C29.749 35.7536 32.7387 35.794 32.8253 36.0283C32.3505 37.0441 32.2108 38.3213 31.819 39.3367C31.1933 40.9581 28.3691 44.4258 30.2467 45.8924C31.086 46.5478 32.5904 46.0724 32.6993 46.3214C32.4882 46.9837 33.4601 49.6826 32.762 49.9361L23.6426 49.7522L25.0261 39.9497L21.6299 37.2537C23.0589 37.8553 24.1402 35.9518 24.4601 35.8443Z" fill="#242323"/>
<path d="M30.1202 29.9628C32.1441 30.0777 31.8054 33.3708 30.1202 34.4966C27.2561 36.41 23.9277 32.9679 25.1517 31.1271C25.3527 30.8248 25.9672 31.1547 26.3469 31.0659C27.1574 30.8761 29.5345 29.9297 30.1202 29.9633V29.9628Z" fill="#242323"/>
<path d="M29.6176 50.5486L32.1963 50.7325C31.8768 52.5714 32.7258 57.8006 31.9447 59.1873C31.2395 60.4389 29.6627 59.9087 29.4288 58.5748C29.0228 56.2591 29.7852 52.962 29.6176 50.5491V50.5486Z" fill="#242323"/>
<path d="M24.8373 50.5486L27.416 50.7325C27.5871 51.1078 27.5248 58.5457 27.416 58.9422C27.1366 59.9605 25.0899 60.2806 24.7746 59.0645C24.2684 57.1122 25.1056 52.7489 24.8373 50.5486Z" fill="#242323"/>
<path d="M27.4789 26.6543C30.8097 26.1952 32.5157 28.6979 32.2585 31.6784C31.7326 28.5248 26.7924 27.2574 24.9002 29.9016C24.6648 30.2305 24.7256 31.0832 24.2715 31.0042C24.3601 29.1057 25.3234 26.9517 27.4789 26.6543Z" fill="#242323"/>
<path d="M27.7303 29.1052C28.2557 29.0623 28.725 29.2058 29.2398 29.2275C29.6311 29.4307 26.7963 30.3085 26.5984 30.3302C24.3806 30.5748 26.6692 29.1911 27.7303 29.1048V29.1052Z" fill="#242323"/>
<path d="M32.0071 33.2712C32.5609 34.8433 32.243 35.4879 30.4976 35.2319L32.0071 33.2712Z" fill="#242323"/>
<path d="M24.5857 33.5162L26.0952 35.2318L24.5229 35.0479L24.5857 33.5162Z" fill="#242323"/>
</g>
<defs>
<clipPath id="clip0_29_1676">
<rect width="80" height="60" fill="white" transform="translate(0.875)"/>
</clipPath>
</defs>
</svg>
