<svg width="24" height="24" viewBox="0 0 24 24" fill="none" xmlns="http://www.w3.org/2000/svg">
<path d="M21.1524 4.17128L21.1524 4.17128L21.1516 4.18368C21.1274 4.57201 21.0016 5.48687 20.8253 6.76863L20.8206 6.80293C20.6455 8.07606 20.4289 9.65844 20.239 11.3047L18.9449 21.0056L18.9418 21.0296L18.9403 21.0487C18.9403 21.0485 18.9403 21.0486 18.9403 21.049L18.9403 21.0494L18.9402 21.0503C18.9402 21.0506 18.9401 21.0507 18.9401 21.0511C18.9397 21.055 18.9388 21.0634 18.9373 21.0758C18.9343 21.1005 18.9287 21.1402 18.9195 21.19C18.9007 21.2923 18.8689 21.4244 18.8186 21.5554C18.7043 21.8531 18.58 21.9431 18.4985 21.9639C18.4468 21.9771 18.3313 21.9838 18.1323 21.9311C17.9395 21.8801 17.7215 21.7873 17.4975 21.6673C17.0432 21.4239 16.6692 21.1257 16.5845 21.048L16.5744 21.0388L16.5641 21.0299C16.4959 20.9713 16.2632 20.7968 15.9669 20.5747C15.9056 20.5288 15.8416 20.4809 15.7758 20.4315C15.3661 20.1239 14.8282 19.7187 14.2558 19.2776C13.094 18.3822 11.8452 17.3805 11.2174 16.7474L11.2174 16.7474L11.2094 16.7396C11.0901 16.6224 11.0286 16.5064 11.0173 16.4252C11.0129 16.3937 11.0132 16.3526 11.0364 16.2918C11.0611 16.2268 11.1213 16.1161 11.2696 15.9674L11.3043 15.9327L11.3347 15.8942L14.9177 11.3599L14.9221 11.3548C14.931 11.344 14.943 11.3294 14.9571 11.3118C14.9846 11.2772 15.0229 11.2278 15.0633 11.1708C15.102 11.1162 15.152 11.0415 15.1971 10.9581C15.2308 10.8958 15.3123 10.7399 15.3364 10.5432C15.3493 10.4383 15.3554 10.2481 15.2595 10.0412C15.15 9.80499 14.9546 9.6478 14.7451 9.57316C14.5636 9.5085 14.4015 9.51491 14.3078 9.52543C14.2067 9.53677 14.117 9.56108 14.0467 9.58409C13.7914 9.66775 13.464 9.84734 13.0565 10.104L13.3612 10.5878L13.0565 10.104L6.92302 13.9678L6.90167 13.9813L6.89865 13.9834C6.89159 13.9874 6.87809 13.9946 6.85823 14.0038C6.80635 14.0279 6.71085 14.0656 6.57268 14.0937C6.30382 14.1483 5.83811 14.1741 5.17318 13.946L1.95761 12.8123C2.06941 12.7215 2.27381 12.5911 2.63225 12.4408L2.67031 12.4249L2.70665 12.4053C6.76317 10.2205 11.5201 8.00294 16.1511 5.84407C17.6453 5.14747 19.1265 4.45699 20.5667 3.7757C20.5731 3.77311 20.5837 3.76896 20.5977 3.76376C20.6309 3.75144 20.681 3.73436 20.741 3.71821C20.8729 3.68273 20.998 3.6668 21.086 3.67557C21.0987 3.67683 21.1083 3.67828 21.1155 3.67963C21.1345 3.72434 21.1763 3.86175 21.1524 4.17128ZM20.5597 3.77861C20.5595 3.77868 20.561 3.77806 20.5639 3.77687L20.5629 3.77723L20.5612 3.77797L20.5597 3.77861ZM21.1335 3.6845C21.1333 3.68457 21.1319 3.68413 21.1297 3.683C21.1325 3.68386 21.1336 3.68443 21.1335 3.6845Z" fill="#FCFCFC" stroke="#36221A" stroke-width="1.7"/>
</svg>
