<svg width="60" height="60" viewBox="0 0 60 60" fill="none" xmlns="http://www.w3.org/2000/svg">
<g clip-path="url(#clip0_274_2064)">
<path d="M32.0202 49.8962V51.8081C32.0202 53.319 33.2446 54.5423 34.7546 54.5423C36.2663 54.5423 37.4907 53.319 37.4907 51.8081V49.8953C37.4888 49.8953 37.4868 49.8962 37.4847 49.8962H32.0202Z" fill="#242323"/>
<path d="M38.0266 10.8637C40.6494 10.8637 42.7754 8.43062 42.7754 5.43134C42.7754 2.43206 40.6494 0 38.0266 0C35.404 0 33.2781 2.43206 33.2781 5.43134C33.278 8.43062 35.4039 10.8637 38.0266 10.8637Z" fill="#242323"/>
<path d="M53.2313 31.5398H52.8734L51.0487 29.7159L50.1196 28.7888C50.8158 28.1112 51.0526 27.057 50.591 26.1445L44.4358 14.0233C44.0035 13.1686 43.1021 12.7109 42.1986 12.7931C42.1672 12.7912 33.8863 12.7912 33.8549 12.7931C32.9533 12.7111 32.0536 13.1687 31.6194 14.0233L29.5209 18.1551C29.6674 18.3407 29.7984 18.5422 29.91 18.7594L35.3901 29.5558L36.0631 30.8808C36.5736 31.889 36.5579 33.0155 36.1394 33.9779L37.2345 35.0722H37.4849C37.4869 35.0722 37.4889 35.0729 37.4909 35.0729C37.8899 35.0739 38.2536 35.1912 38.586 35.3614C39.3842 35.7693 39.9492 36.578 39.9492 37.5363V47.4308C39.9492 48.3893 39.3841 49.198 38.586 49.6067V51.9107C38.586 53.4216 39.8105 54.6449 41.3204 54.6449C42.8323 54.6449 44.0565 53.4216 44.0565 51.9107V44.5401H43.8844C42.5233 44.5401 41.4201 43.435 41.4201 42.0756V32.1801C41.4201 31.2228 41.9816 30.4141 42.7815 30.0063C43.1177 29.8351 43.4817 29.7158 43.8844 29.7158H44.0859V23.4073L46.5248 28.208C46.6421 28.4407 46.8006 28.6324 46.9787 28.8045L46.0652 29.7159L44.2444 31.5398H43.8845C43.5285 31.5398 43.2411 31.8263 43.2411 32.1802V42.0757C43.2411 42.4299 43.5285 42.7173 43.8845 42.7173H53.2314C53.5876 42.7173 53.873 42.4299 53.873 42.0757V32.1802C53.8729 31.8263 53.5875 31.5398 53.2313 31.5398ZM47.3559 29.7159L47.7745 29.2983C48.0269 29.3912 48.2891 29.4559 48.5588 29.4559C48.821 29.4559 49.0831 29.3942 49.3413 29.2993L49.7579 29.7159L51.5827 31.5398H45.5313L47.3559 29.7159Z" fill="#242323"/>
<path d="M22.2802 16.2188C24.903 16.2188 27.029 13.7867 27.029 10.7883C27.029 7.78803 24.903 5.35498 22.2802 5.35498C19.6576 5.35498 17.5315 7.78803 17.5315 10.7883C17.5314 13.7867 19.6575 16.2188 22.2802 16.2188Z" fill="#242323"/>
<path d="M37.4848 36.8948H37.127L35.3023 35.0721L34.3732 34.144C34.7352 33.7928 34.9502 33.3498 35.0244 32.8627C35.091 32.4099 35.0676 31.9387 34.8446 31.4997L28.6915 19.3783C28.2553 18.5227 27.3555 18.0669 26.4541 18.1482C26.4423 18.1482 25.2708 18.1472 23.8076 18.1472C21.3708 18.1472 18.13 18.1472 18.1085 18.1482C17.2069 18.0669 16.3072 18.5238 15.8729 19.3783L9.71792 31.4997C9.28948 32.3435 9.43813 33.3291 10.0172 34.0089L8.95312 35.0719L7.13031 36.8946H6.76843C6.41457 36.8946 6.12701 37.1822 6.12701 37.5362V47.4307C6.12701 47.7848 6.41457 48.0724 6.76843 48.0724H16.1153C16.4694 48.0724 16.7567 47.7848 16.7567 47.4307V41.1692C17.1189 41.5614 17.6252 41.8147 18.2002 41.8147H18.5818V47.4307C18.5818 48.7342 17.5568 49.7777 16.2737 49.8639V57.163C16.2737 58.6739 17.4981 59.8974 19.01 59.8974C20.5198 59.8974 21.7442 58.6739 21.7442 57.163V41.8147H22.8394V57.2657C22.8394 58.7765 24.0639 59.9998 25.5739 59.9998C27.0857 59.9998 28.31 58.7765 28.31 57.2657V49.896H28.1377C26.7785 49.896 25.6735 48.7901 25.6735 47.4307V41.8147H26.3619C26.7923 41.8147 27.1695 41.6475 27.4944 41.4138V47.4307C27.4944 47.7848 27.7819 48.0724 28.1378 48.0724H37.4847C37.8408 48.0724 38.1263 47.7848 38.1263 47.4307V37.5362C38.1264 37.1823 37.8409 36.8948 37.4848 36.8948ZM8.4193 36.8948L10.2422 35.0721L10.7409 34.5721C11.0656 34.7326 11.4098 34.8109 11.7483 34.8109C11.938 34.8109 12.1257 34.7814 12.3075 34.7346L12.6439 35.0721L14.4668 36.8948H8.4193ZM15.7576 36.8948L13.9329 35.0721L13.1584 34.2964C13.4047 34.1 13.6277 33.8643 13.7803 33.564L16.2192 28.7606V35.0925V36.8948H15.7576ZM28.3413 36.8948V35.0721V31.7823V28.7625L30.4829 32.9782L30.7783 33.564C30.8957 33.7958 31.054 33.9884 31.2321 34.1607L30.3187 35.0722L28.4979 36.8949L28.3413 36.8948ZM29.7848 36.8948L31.6095 35.0721L32.0281 34.6534C32.2804 34.7463 32.5426 34.8108 32.8123 34.8108C33.0744 34.8108 33.3365 34.7491 33.5948 34.6544L34.0133 35.0719L35.8362 36.8946H29.7848V36.8948Z" fill="#242323"/>
</g>
<defs>
<clipPath id="clip0_274_2064">
<rect width="60" height="60" fill="white"/>
</clipPath>
</defs>
</svg>
