<svg width="271" height="54" viewBox="0 0 271 54" fill="none" xmlns="http://www.w3.org/2000/svg">
<g clip-path="url(#clip0_273_197)">
<path d="M10.5828 51.0537V53.6656H9.54022V46.0041H10.5914V46.657C10.843 46.3972 11.1398 46.1848 11.4675 46.0301C11.8002 45.8908 12.1578 45.8198 12.5188 45.8212C12.9246 45.8078 13.3288 45.8783 13.7058 46.0282C14.0828 46.1781 14.4244 46.404 14.709 46.6919C14.9964 46.9763 15.2224 47.316 15.373 47.6903C15.5236 48.0645 15.5957 48.4654 15.5849 48.8683C15.5878 49.2648 15.5134 49.658 15.3659 50.0263C15.2252 50.3862 15.0137 50.7146 14.7439 50.9924C14.4787 51.2884 14.1492 51.5207 13.7803 51.6714C13.4052 51.8234 13.0027 51.8974 12.5976 51.8891C12.2194 51.8921 11.8443 51.8211 11.4937 51.6802C11.1455 51.5266 10.8302 51.308 10.5651 51.0361M10.5651 48.8073C10.5583 49.0771 10.6059 49.3455 10.7052 49.5967C10.8045 49.8479 10.9534 50.0768 11.1432 50.2698C11.3162 50.4645 11.5294 50.6197 11.7683 50.7249C12.0072 50.8301 12.2661 50.8828 12.5274 50.8793C12.7909 50.8781 13.0515 50.8254 13.2945 50.7242C13.5374 50.6229 13.7579 50.4751 13.9434 50.2891C14.1289 50.1032 14.2757 49.8828 14.3755 49.6404C14.4752 49.3981 14.526 49.1386 14.5248 48.8768C14.5297 48.6052 14.4804 48.3352 14.3796 48.0827C14.2789 47.8301 14.1288 47.5999 13.9379 47.4054C13.7549 47.2151 13.5345 47.0644 13.2903 46.9625C13.0461 46.8607 12.7834 46.8099 12.5186 46.8134C12.2614 46.814 12.0071 46.8678 11.7719 46.9712C11.5366 47.0746 11.3255 47.2254 11.152 47.4141C10.9639 47.5944 10.8148 47.8109 10.7139 48.0504C10.613 48.29 10.5623 48.5475 10.5651 48.8072" fill="#3792D0"/>
<path d="M34.2714 51.7588V51.0101C34.0243 51.275 33.7265 51.4882 33.3953 51.637C33.065 51.7847 32.7062 51.8589 32.3441 51.8546C31.9399 51.8652 31.5379 51.7934 31.1627 51.6437C30.7875 51.494 30.4472 51.2695 30.1626 50.9841C29.8758 50.6974 29.6502 50.3561 29.4997 49.9805C29.3491 49.605 29.2766 49.203 29.2865 48.7988C29.2831 48.4024 29.3574 48.009 29.5055 47.6409C29.6423 47.2835 29.851 46.9576 30.1188 46.6831C30.3906 46.3946 30.7184 46.1636 31.0824 46.0041C31.4606 45.8519 31.866 45.7776 32.274 45.7858C32.6522 45.7828 33.0273 45.8537 33.3779 45.9947C33.7096 46.1464 34.0074 46.3624 34.254 46.6301V45.9336H35.314V51.7234L34.2714 51.7588ZM30.356 48.8247C30.3481 49.0968 30.396 49.3675 30.497 49.6205C30.5979 49.8735 30.7496 50.1034 30.9429 50.2961C31.1247 50.4908 31.346 50.645 31.5922 50.7485C31.8383 50.8521 32.1037 50.9026 32.3709 50.8968C32.6269 50.8961 32.8799 50.8423 33.1137 50.7389C33.3475 50.6354 33.5571 50.4846 33.7289 50.2961C33.9185 50.1147 34.0691 49.8969 34.1714 49.656C34.2738 49.415 34.3259 49.1559 34.3246 48.8944C34.3301 48.6253 34.281 48.3578 34.1801 48.108C34.0793 47.8582 33.9288 47.6311 33.7377 47.4404C33.5627 47.246 33.3479 47.091 33.1076 46.9859C32.8673 46.8807 32.6072 46.8279 32.3447 46.831C32.0821 46.831 31.8221 46.8827 31.5797 46.9831C31.3372 47.0835 31.1172 47.2306 30.9323 47.416C30.7474 47.6014 30.6013 47.8213 30.5024 48.0631C30.4035 48.3049 30.3538 48.5637 30.3561 48.8247" fill="#3792D0"/>
<path d="M48.9717 45.9692H50.093L51.6699 50.2789L53.3694 45.9692H54.4996L51.3634 53.6308H50.2595L51.0655 51.5934L48.9717 45.9692Z" fill="#3792D0"/>
<path d="M71.705 48.8335C71.7419 48.3048 71.636 47.7758 71.3984 47.3012C71.2987 47.1415 71.1571 47.0118 70.9889 46.9259C70.8207 46.8401 70.6321 46.8013 70.4434 46.8138C70.2499 46.8014 70.0565 46.84 69.8827 46.9256C69.7089 47.0111 69.5609 47.1407 69.4535 47.3012C69.2038 47.7565 69.0913 48.2735 69.1295 48.7906V51.7594H68.1304V45.9697H69.0678V46.6572C69.2397 46.416 69.4644 46.2166 69.7249 46.0739C69.9953 45.9356 70.2972 45.8696 70.601 45.8824C70.9698 45.869 71.3356 45.9532 71.661 46.1262C71.9628 46.3041 72.2039 46.568 72.3531 46.8837C72.5069 46.5656 72.7544 46.3014 73.0627 46.1262C73.4008 45.9533 73.7778 45.8694 74.1578 45.8824C74.4513 45.8688 74.7442 45.9186 75.0164 46.0283C75.2887 46.1381 75.5337 46.3051 75.7348 46.518C76.1545 46.9989 76.3683 47.6238 76.3304 48.2593V51.8027H75.2792V48.3983C75.3046 47.9885 75.187 47.5827 74.9463 47.249C74.8439 47.1155 74.7111 47.008 74.5588 46.9354C74.4065 46.8627 74.2391 46.827 74.0702 46.8311C73.882 46.8147 73.6927 46.847 73.5208 46.9248C73.3489 47.0026 73.2002 47.1232 73.089 47.2751C72.8518 47.7277 72.7485 48.2379 72.7912 48.7465V51.7762H71.7749L71.705 48.8335Z" fill="#3792D0"/>
<path d="M91.3204 49.2689C91.3907 49.7263 91.6238 50.1433 91.9773 50.4443C92.2795 50.6962 92.6515 50.851 93.0441 50.8883C93.4367 50.9256 93.8314 50.8436 94.1762 50.6532C94.4623 50.4819 94.698 50.2387 94.8595 49.948H96.0334C95.8091 50.5374 95.4201 51.051 94.9121 51.4281C94.4196 51.7695 93.8305 51.9464 93.2301 51.933C92.8247 51.9363 92.4226 51.8593 92.0474 51.7067C91.6784 51.5517 91.347 51.3202 91.0753 51.0276C90.8014 50.7411 90.587 50.4037 90.4445 50.0347C90.2891 49.6712 90.2086 49.2804 90.208 48.8855C90.205 48.4927 90.2764 48.1028 90.4183 47.7362C90.5634 47.3786 90.7743 47.0509 91.0403 46.7702C91.3132 46.4701 91.6437 46.2273 92.0124 46.0562C92.3891 45.8973 92.7946 45.8173 93.2038 45.8211C93.7018 45.8154 94.1932 45.9355 94.6318 46.17C95.0711 46.4098 95.4465 46.7501 95.7269 47.1629C95.8918 47.4347 96.0186 47.7276 96.1036 48.0336C96.1851 48.3905 96.2233 48.7559 96.2176 49.1219V49.2695L91.3204 49.2689ZM95.0698 48.3286C94.9675 47.8986 94.7313 47.5117 94.3948 47.223C94.0593 46.9632 93.6462 46.8221 93.2209 46.8221C92.7956 46.8221 92.3825 46.9632 92.047 47.223C91.7011 47.4992 91.4576 47.8821 91.3549 48.3112L95.0698 48.3286Z" fill="#3792D0"/>
<path d="M111.198 51.7589H110.156V45.9692H111.163V46.657C111.357 46.4173 111.602 46.224 111.881 46.0912C112.157 45.9684 112.456 45.906 112.757 45.9083C113.081 45.8876 113.405 45.9369 113.708 46.0527C114.01 46.1685 114.284 46.3481 114.51 46.5792C114.951 47.114 115.17 47.7959 115.123 48.4858V51.7942H114.098V48.7216C114.132 48.2402 114.009 47.7608 113.747 47.3547C113.619 47.2014 113.456 47.0809 113.272 47.0036C113.087 46.9263 112.887 46.8945 112.687 46.9107C112.468 46.8932 112.248 46.9321 112.049 47.0236C111.849 47.1151 111.677 47.2561 111.548 47.4331C111.273 47.9705 111.151 48.5729 111.197 49.1743L111.198 51.7589Z" fill="#3792D0"/>
<path d="M129.744 51.7589V46.9094H128.912V45.9691H129.744V44.0886H130.787V45.9691H131.61V46.9094H130.787V51.7589H129.744Z" fill="#3792D0"/>
<path d="M162.281 49.2689C162.329 49.5753 162.451 49.8657 162.636 50.1152C162.822 50.3647 163.065 50.566 163.346 50.702C163.626 50.8379 163.935 50.9045 164.247 50.896C164.559 50.8875 164.865 50.8042 165.137 50.6532C165.425 50.4842 165.661 50.2404 165.82 49.948H167.003C166.773 50.5364 166.381 51.049 165.873 51.4281C165.381 51.7695 164.791 51.9463 164.191 51.933C163.788 51.9369 163.389 51.8599 163.017 51.7066C162.648 51.5517 162.317 51.3201 162.045 51.0276C161.771 50.7391 161.555 50.4024 161.406 50.0346C161.114 49.296 161.114 48.4749 161.406 47.7362C161.547 47.3789 161.755 47.0512 162.019 46.7701C162.468 46.2897 163.065 45.9704 163.716 45.8618C164.367 45.7531 165.036 45.8613 165.619 46.1694C165.98 46.3599 166.296 46.6234 166.548 46.9428C166.8 47.2621 166.982 47.6304 167.082 48.0239C167.167 48.3804 167.208 48.7458 167.205 49.1122V49.2689H162.281ZM166.039 48.3286C165.934 47.8978 165.695 47.5109 165.356 47.223C165.03 46.9587 164.62 46.8197 164.2 46.8312C163.767 46.8254 163.345 46.9701 163.008 47.2404C162.665 47.5188 162.422 47.9009 162.316 48.3287L166.039 48.3286Z" fill="#3792D0"/>
<path d="M182.15 51.759H181.099V45.9692H182.106V46.657C182.298 46.4148 182.545 46.2208 182.827 46.0907C183.108 45.9607 183.416 45.8982 183.727 45.9083C184.05 45.8888 184.374 45.9386 184.676 46.0543C184.978 46.1701 185.252 46.3491 185.479 46.5792C185.917 47.1157 186.136 47.7963 186.092 48.4859V51.7943H185.058V48.7216C185.095 48.2413 184.975 47.7619 184.716 47.3547C184.588 47.202 184.425 47.082 184.241 47.0047C184.056 46.9275 183.856 46.8952 183.656 46.9107C183.437 46.8924 183.217 46.9309 183.018 47.0225C182.818 47.1141 182.646 47.2555 182.518 47.4331C182.238 47.969 182.116 48.5726 182.167 49.1743L182.15 51.759Z" fill="#3792D0"/>
<path d="M200.425 52.2202H201.537C201.69 52.48 201.911 52.6937 202.177 52.8384C202.447 52.9805 202.748 53.0551 203.053 53.056C203.315 53.0665 203.577 53.0241 203.823 52.9313C204.068 52.8385 204.292 52.6973 204.481 52.5162C204.662 52.3331 204.803 52.1149 204.895 51.8751C204.987 51.6354 205.028 51.3794 205.016 51.1232V51.01C204.769 51.2756 204.471 51.4889 204.139 51.6368C203.806 51.7839 203.444 51.8582 203.079 51.8545C202.675 51.865 202.273 51.7932 201.898 51.6435C201.523 51.4937 201.183 51.2692 200.898 50.9838C200.611 50.6972 200.386 50.3558 200.235 49.9802C200.085 49.6046 200.012 49.2026 200.022 48.7984C200.019 48.402 200.093 48.0087 200.241 47.6406C200.378 47.2811 200.59 46.9547 200.863 46.6829C201.132 46.3945 201.457 46.1635 201.818 46.0038C202.196 45.8517 202.601 45.7776 203.009 45.7858C203.387 45.7828 203.762 45.8538 204.113 45.9947C204.46 46.1425 204.773 46.3591 205.033 46.6311V45.9346H206.084V50.7666C206.134 51.6243 205.852 52.4686 205.296 53.1259C205.019 53.4191 204.681 53.6489 204.306 53.7993C203.931 53.9496 203.527 54.017 203.123 53.9966C202.519 54.0143 201.924 53.8507 201.415 53.527C200.939 53.2108 200.584 52.7446 200.407 52.2036M201.108 48.8081C201.102 49.0799 201.151 49.3501 201.252 49.6028C201.353 49.8555 201.503 50.0856 201.695 50.2795C201.878 50.4729 202.099 50.6262 202.345 50.7296C202.591 50.8331 202.856 50.8844 203.123 50.8802C203.38 50.8796 203.634 50.8259 203.87 50.7225C204.105 50.6191 204.316 50.4682 204.49 50.2795C204.678 50.0976 204.827 49.8796 204.928 49.6386C205.029 49.3976 205.079 49.1388 205.077 48.8777C205.082 48.6094 205.033 48.3428 204.934 48.0932C204.835 47.8436 204.687 47.6161 204.498 47.4238C204.322 47.2306 204.107 47.0765 203.867 46.9715C203.627 46.8665 203.368 46.813 203.105 46.8144C202.842 46.8132 202.581 46.864 202.338 46.9639C202.094 47.0638 201.873 47.2108 201.687 47.3963C201.501 47.5817 201.355 47.8021 201.255 48.0444C201.156 48.2868 201.106 48.5464 201.108 48.8081Z" fill="#3792D0"/>
<path d="M221.371 45.2895H220.329V44.0886H221.371V45.2895ZM220.338 45.9686H221.371V51.7501H220.338V45.9686Z" fill="#3792D0"/>
<path d="M236.685 51.7589H235.634V45.9692H236.641V46.657C236.835 46.4173 237.08 46.224 237.359 46.0912C237.635 45.9684 237.934 45.906 238.235 45.9083C238.559 45.8876 238.883 45.9369 239.186 46.0527C239.488 46.1685 239.762 46.3481 239.988 46.5792C240.429 47.114 240.648 47.7959 240.601 48.4858V51.7942H239.55V48.7216C239.587 48.2408 239.467 47.761 239.207 47.3535C239.078 47.2006 238.913 47.0806 238.727 47.0034C238.541 46.9262 238.34 46.894 238.139 46.9095C237.921 46.891 237.702 46.9294 237.504 47.021C237.305 47.1127 237.135 47.2543 237.009 47.4319C236.729 47.9679 236.608 48.5715 236.658 49.1731L236.685 51.7589Z" fill="#3792D0"/>
<path d="M255.651 49.2689C255.718 49.7275 255.952 50.1458 256.308 50.4442C256.609 50.696 256.98 50.8508 257.371 50.8881C257.762 50.9254 258.155 50.8435 258.499 50.6531C258.79 50.4878 259.027 50.2431 259.182 49.9479H260.4C260.175 50.5373 259.786 51.0508 259.278 51.428C258.786 51.7694 258.197 51.9463 257.596 51.9329C257.191 51.9361 256.789 51.8592 256.414 51.7065C256.045 51.5516 255.713 51.3201 255.442 51.0275C255.168 50.739 254.951 50.4022 254.802 50.0346C254.51 49.2959 254.51 48.4748 254.802 47.7361C254.944 47.3788 255.152 47.0512 255.415 46.77C255.693 46.4715 256.026 46.2291 256.396 46.0561C256.773 45.8972 257.179 45.8172 257.588 45.821C258.086 45.8153 258.577 45.9354 259.016 46.1699C259.452 46.41 259.825 46.7504 260.102 47.1628C260.275 47.4306 260.402 47.7247 260.479 48.0334C260.568 48.3893 260.609 48.7552 260.602 49.1218V49.2693L255.651 49.2689ZM259.401 48.3286C259.295 47.9 259.06 47.514 258.726 47.223C258.39 46.9632 257.977 46.8221 257.552 46.8221C257.127 46.8221 256.714 46.9632 256.378 47.223C256.029 47.4984 255.783 47.8813 255.677 48.3113L259.401 48.3286Z" fill="#3792D0"/>
<path d="M199.172 0.130553H190.411V33.8501H194.354V20.5903H198.349C202.711 20.5903 206.064 19.6703 208.406 17.8304C210.748 15.9905 211.916 13.3785 211.91 9.99445C211.91 3.4357 207.673 0.159225 199.198 0.165039M205.48 15.5752C203.92 16.6982 201.389 17.2554 197.902 17.2554H194.345V3.52604H198.725C201.835 3.52604 204.13 4.07456 205.593 5.163C206.342 5.75064 206.935 6.51175 207.32 7.37979C207.705 8.24782 207.87 9.19635 207.801 10.1425C207.801 12.6151 207.019 14.4144 205.453 15.5404M227.732 0L214.319 33.8501H218.349L222.484 23.15H236.08L240.302 33.8761H244.385L231.052 0H227.732ZM223.877 19.5979L227.872 9.15034C228.452 7.55713 228.941 5.93223 229.335 4.2836C229.775 5.93188 230.301 7.55632 230.911 9.15034L234.854 19.5979H223.877ZM266.734 0.130553L257.684 16.9946L248.704 0.130553H244.385L255.686 20.9561V33.8505H259.681V20.791L271 0.148398L266.734 0.130553ZM33.1939 20.9124C32.481 23.5356 31.9252 26.1985 31.5294 28.887C31.0782 26.159 30.449 23.4631 29.6458 20.8162L23.2683 0.130553H19.0894L13.0094 20.6339C12.1904 23.3367 11.5696 26.095 11.1522 28.887C10.756 26.2162 10.2152 23.5686 9.53199 20.9557L4.17882 0.130553H0L9.02339 33.8501H12.9219L19.5537 11.4139C20.2431 9.22952 20.7843 7.00166 21.1738 4.74531C21.3255 5.67181 21.5362 6.5878 21.8046 7.48776C22.2076 9.01134 22.5756 10.2738 22.8997 11.2749L29.7422 33.8501H33.6408L42.708 0.130553H38.5291L33.1939 20.9124ZM56.7687 0.0174437L43.3561 33.8674H47.3509L51.5297 23.15H65.1174L69.34 33.8761H73.4224L60.0889 0.025494L56.7687 0.0174437ZM52.914 19.6154L56.9088 9.16779C57.4895 7.57453 57.978 5.94959 58.372 4.30091C58.9151 6.22501 59.4319 7.8444 59.9488 9.16765L63.8912 19.6152L52.914 19.6154ZM86.7215 17.0035L77.7419 0.130688H73.4225L84.7232 20.9562V33.8506H88.6918V20.7912L100.08 0.13109H95.814L86.7215 17.0035Z" fill="#26304B"/>
<mask id="mask0_273_197" style="mask-type:luminance" maskUnits="userSpaceOnUse" x="106" y="0" width="79" height="35">
<path d="M140.17 28.7742V25.8053C139.507 25.5025 138.968 24.9837 138.643 24.335C138.318 23.6862 138.226 22.9465 138.382 22.2385C138.538 21.5305 138.933 20.8968 139.501 20.4424C140.069 19.988 140.776 19.7402 141.505 19.7402C142.235 19.7402 142.942 19.988 143.51 20.4424C144.078 20.8968 144.473 21.5305 144.629 22.2385C144.785 22.9465 144.693 23.6862 144.368 24.335C144.043 24.9837 143.504 25.5025 142.841 25.8053V28.7741C142.857 28.9576 142.833 29.1422 142.773 29.3162C142.713 29.4903 142.617 29.65 142.491 29.7854C142.366 29.9207 142.213 30.0288 142.044 30.1027C141.874 30.1766 141.691 30.2147 141.505 30.2147C141.32 30.2147 141.137 30.1766 140.967 30.1027C140.798 30.0288 140.645 29.9207 140.52 29.7854C140.394 29.65 140.298 29.4903 140.238 29.3162C140.178 29.1422 140.154 28.9577 140.17 28.7742ZM150.551 17.0555V17.186H132.495V17.0555H129.184V17.186C129.184 22.4504 130.27 26.5801 132.443 29.5751C133.449 31.0158 134.803 32.1816 136.382 32.9652C137.96 33.7488 139.712 34.1249 141.475 34.0589C143.256 34.1433 145.03 33.7845 146.636 33.0153C148.243 32.246 149.63 31.0905 150.674 29.6535C152.829 26.7105 153.906 22.5693 153.906 17.2296V17.0552L150.551 17.0555ZM106.345 0.11305V33.8235H110.287V19.4237H124.348V15.9411H110.287V3.60434H125.25V0.121772L106.345 0.11305ZM164.909 3.56073H170.034C172.955 3.56073 175.077 4.0512 176.403 5.03212C177.729 6.01304 178.392 7.6208 178.392 9.85538C178.458 10.7723 178.318 11.6924 177.979 12.5482C177.641 13.4039 177.115 14.1735 176.438 14.8005C175.142 15.8975 173.098 16.446 170.306 16.446H164.909L164.909 3.56073ZM160.967 0.121772V33.8326H164.909V19.8154H171.988L180.197 33.8324H184.857L175.649 18.6838C180.193 17.1166 182.468 14.1043 182.474 9.64674C182.474 6.46017 181.475 4.08335 179.487 2.49885C177.498 0.914357 174.424 0.122042 170.262 0.122042L160.967 0.121772ZM132.399 4.47488C130.244 7.40894 129.166 10.5693 129.166 15.9497V16.1241H132.495V15.9936C132.495 11.6405 133.266 9.21134 134.817 6.9216C135.543 5.80176 136.553 4.89084 137.744 4.27976C138.935 3.66867 140.267 3.37879 141.606 3.43904C142.93 3.37057 144.249 3.65093 145.429 4.25176C146.609 4.85259 147.608 5.75255 148.326 6.86055C149.841 9.14157 150.604 11.5445 150.604 15.9587V16.0893H153.915V15.9587C153.915 10.7349 152.829 7.50554 150.665 4.51862C149.658 3.07388 148.301 1.90479 146.719 1.11955C145.138 0.3343 143.382 -0.0417339 141.615 0.0262413C139.835 -0.0564247 138.062 0.304034 136.457 1.07492C134.852 1.8458 133.466 3.00271 132.425 4.44067" fill="white"/>
</mask>
<g mask="url(#mask0_273_197)">
<path d="M184.831 0.0609131H106.345V34.0677H184.831V0.0609131Z" fill="url(#paint0_linear_273_197)"/>
</g>
</g>
<defs>
<linearGradient id="paint0_linear_273_197" x1="-320.541" y1="159.927" x2="-319.599" y2="159.927" gradientUnits="userSpaceOnUse">
<stop stop-color="#4EC8EC"/>
<stop offset="0.01" stop-color="#4EC8EC"/>
<stop offset="1" stop-color="#4684C5"/>
</linearGradient>
<clipPath id="clip0_273_197">
<rect width="271" height="54" fill="white"/>
</clipPath>
</defs>
</svg>
