<svg width="24" height="24" viewBox="0 0 24 24" fill="none" xmlns="http://www.w3.org/2000/svg">
<path d="M4.5117 2.296C7.72092 2.09864 10.217 2 12 2C13.7832 2 16.2802 2.09871 19.491 2.29607C21.2291 2.40293 22.6348 4.07993 22.7798 6.21943C22.9266 8.38657 23 10.2953 23 11.9456C23 13.6161 22.9248 15.5514 22.7743 17.7516C22.6298 19.8645 21.2546 21.5294 19.5396 21.6678C16.7946 21.8893 14.2814 22 12 22C9.71893 22 7.20664 21.8893 4.46312 21.6679C2.7487 21.5296 1.3738 19.8656 1.22859 17.7536C1.0762 15.537 1 13.601 1 11.9456C1 10.3101 1.07437 8.40071 1.22313 6.21743C1.36884 4.07879 2.7743 2.40286 4.5117 2.296Z" stroke="#36221A" stroke-width="2" stroke-linejoin="round"/>
<path d="M9 9.48934V14.5107C9 14.781 9.32322 15 9.72181 15C9.86338 15 10.0018 14.9718 10.1199 14.9189L15.6761 12.4298C16.0087 12.2808 16.1001 11.9773 15.8803 11.7519C15.8277 11.698 15.7599 11.6517 15.6808 11.6156L10.1246 9.08331C9.79382 8.9325 9.34528 8.9921 9.12279 9.21631C9.04278 9.29703 9 9.39207 9 9.48934Z" stroke="#36221A" stroke-width="2" stroke-linejoin="round"/>
</svg>
