<svg width="142" height="18" viewBox="0 0 142 18" fill="none" xmlns="http://www.w3.org/2000/svg">
<path d="M9.2 17.24C6.512 17.24 4.376 16.656 2.792 15.488C1.224 14.32 0.44 12.496 0.44 10.016V0.847999C0.44 0.671999 0.504 0.52 0.632 0.391999C0.76 0.263999 0.912 0.199999 1.088 0.199999H6.104C6.28 0.199999 6.432 0.263999 6.56 0.391999C6.688 0.52 6.752 0.671999 6.752 0.847999V10.4C6.752 11.056 6.968 11.56 7.4 11.912C7.848 12.264 8.448 12.44 9.2 12.44C9.952 12.44 10.544 12.264 10.976 11.912C11.424 11.56 11.648 11.056 11.648 10.4V0.847999C11.648 0.671999 11.712 0.52 11.84 0.391999C11.968 0.263999 12.12 0.199999 12.296 0.199999H17.312C17.488 0.199999 17.64 0.263999 17.768 0.391999C17.896 0.52 17.96 0.671999 17.96 0.847999V10.016C17.96 12.496 17.168 14.32 15.584 15.488C14.016 16.656 11.888 17.24 9.2 17.24ZM37.3666 12.32C37.5426 12.32 37.6946 12.384 37.8226 12.512C37.9506 12.64 38.0146 12.792 38.0146 12.968V16.352C38.0146 16.528 37.9506 16.68 37.8226 16.808C37.6946 16.936 37.5426 17 37.3666 17H22.1986C22.0226 17 21.8706 16.936 21.7426 16.808C21.6146 16.68 21.5506 16.528 21.5506 16.352V0.847999C21.5506 0.671999 21.6146 0.52 21.7426 0.391999C21.8706 0.263999 22.0226 0.199999 22.1986 0.199999H37.1266C37.3026 0.199999 37.4546 0.263999 37.5826 0.391999C37.7106 0.52 37.7746 0.671999 37.7746 0.847999V4.232C37.7746 4.408 37.7106 4.56 37.5826 4.688C37.4546 4.816 37.3026 4.88 37.1266 4.88H27.7906V6.392H35.8066C35.9826 6.392 36.1346 6.456 36.2626 6.584C36.3906 6.712 36.4546 6.864 36.4546 7.04V10.16C36.4546 10.336 36.3906 10.488 36.2626 10.616C36.1346 10.744 35.9826 10.808 35.8066 10.808H27.7906V12.32H37.3666ZM46.5253 16.184C46.3173 16.728 45.9573 17 45.4453 17H40.9093C40.7653 17 40.6373 16.952 40.5253 16.856C40.4293 16.744 40.3813 16.616 40.3813 16.472L40.4053 16.328L45.6373 0.991999C45.7013 0.783999 45.8213 0.599999 45.9973 0.439999C46.1733 0.279999 46.4133 0.199999 46.7173 0.199999H53.3893C53.6933 0.199999 53.9333 0.279999 54.1093 0.439999C54.2853 0.599999 54.4053 0.783999 54.4693 0.991999L59.7013 16.328L59.7253 16.472C59.7253 16.616 59.6693 16.744 59.5573 16.856C59.4613 16.952 59.3413 17 59.1973 17H54.6613C54.1493 17 53.7893 16.728 53.5813 16.184L52.9813 14.504H47.1253L46.5253 16.184ZM50.0533 4.832L48.3493 9.824H51.7573L50.0533 4.832ZM78.6519 0.199999C78.8279 0.199999 78.9799 0.263999 79.1079 0.391999C79.2359 0.52 79.2999 0.671999 79.2999 0.847999V4.712C79.2999 4.888 79.2359 5.04 79.1079 5.168C78.9799 5.296 78.8279 5.36 78.6519 5.36H73.4919V16.352C73.4919 16.528 73.4279 16.68 73.2999 16.808C73.1719 16.936 73.0199 17 72.8439 17H67.8999C67.7239 17 67.5719 16.936 67.4439 16.808C67.3159 16.68 67.2519 16.528 67.2519 16.352V5.36H62.0919C61.9159 5.36 61.7639 5.296 61.6359 5.168C61.5079 5.04 61.4439 4.888 61.4439 4.712V0.847999C61.4439 0.671999 61.5079 0.52 61.6359 0.391999C61.7639 0.263999 61.9159 0.199999 62.0919 0.199999H78.6519ZM87.3065 16.184C87.0985 16.728 86.7385 17 86.2265 17H81.6905C81.5465 17 81.4185 16.952 81.3065 16.856C81.2105 16.744 81.1625 16.616 81.1625 16.472L81.1865 16.328L86.4185 0.991999C86.4825 0.783999 86.6025 0.599999 86.7785 0.439999C86.9545 0.279999 87.1945 0.199999 87.4985 0.199999H94.1705C94.4745 0.199999 94.7145 0.279999 94.8905 0.439999C95.0665 0.599999 95.1865 0.783999 95.2505 0.991999L100.483 16.328L100.507 16.472C100.507 16.616 100.451 16.744 100.339 16.856C100.243 16.952 100.123 17 99.9785 17H95.4425C94.9305 17 94.5705 16.728 94.3625 16.184L93.7625 14.504H87.9065L87.3065 16.184ZM90.8345 4.832L89.1305 9.824H92.5385L90.8345 4.832ZM120.681 16.256C120.713 16.32 120.729 16.392 120.729 16.472C120.729 16.616 120.673 16.744 120.561 16.856C120.465 16.952 120.345 17 120.201 17H114.753C114.529 17 114.321 16.944 114.129 16.832C113.953 16.72 113.825 16.576 113.745 16.4L111.633 11.648H109.617V16.352C109.617 16.528 109.553 16.68 109.425 16.808C109.297 16.936 109.145 17 108.969 17H103.785C103.609 17 103.457 16.936 103.329 16.808C103.201 16.68 103.137 16.528 103.137 16.352V0.847999C103.137 0.671999 103.201 0.52 103.329 0.391999C103.457 0.263999 103.609 0.199999 103.785 0.199999H113.121C114.561 0.199999 115.817 0.431999 116.889 0.896C117.977 1.36 118.809 2.032 119.385 2.912C119.961 3.792 120.249 4.824 120.249 6.008C120.249 8.184 119.409 9.76 117.729 10.736L120.681 16.256ZM112.617 7.208C112.969 7.208 113.241 7.096 113.433 6.872C113.625 6.632 113.721 6.336 113.721 5.984C113.721 5.632 113.625 5.328 113.433 5.072C113.257 4.8 112.985 4.664 112.617 4.664H109.617V7.208H112.617ZM128.088 16.184C127.88 16.728 127.52 17 127.008 17H122.472C122.328 17 122.2 16.952 122.088 16.856C121.992 16.744 121.944 16.616 121.944 16.472L121.968 16.328L127.2 0.991999C127.264 0.783999 127.384 0.599999 127.56 0.439999C127.736 0.279999 127.976 0.199999 128.28 0.199999H134.952C135.256 0.199999 135.496 0.279999 135.672 0.439999C135.848 0.599999 135.968 0.783999 136.032 0.991999L141.264 16.328L141.288 16.472C141.288 16.616 141.232 16.744 141.12 16.856C141.024 16.952 140.904 17 140.76 17H136.224C135.712 17 135.352 16.728 135.144 16.184L134.544 14.504H128.688L128.088 16.184ZM131.616 4.832L129.912 9.824H133.32L131.616 4.832Z" fill="black"/>
</svg>
